<?xml version="1.0" standalone="no"?><!DOCTYPE svg PUBLIC "-//W3C//DTD SVG 20010904//EN" "http://www.w3.org/TR/2001/REC-SVG-20010904/DTD/svg10.dtd"><svg version="1.0" xmlns="http://www.w3.org/2000/svg" width="896pt" height="512pt" viewBox="0 0 896 512" preserveAspectRatio="xMidYMid meet"><rect width="100%" height="100%" fill="#ccc"/><g transform="translate(0,512) scale(0.1,-0.1)" fill="#999" stroke="none"><path d="M3130 2575 l0 -455 60 0 60 0 2 380 3 379 200 -377 201 -377 82 -3 82 -3 0 456 0 455 -60 0 -60 0 -2 -375 -3 -375 -199 375 -199 375 -83 0 -84 0 0 -455z"/><path d="M4070 2575 l0 -455 295 0 295 0 0 50 0 50 -235 0 -235 0 0 170 0 170 220 0 220 0 0 50 0 50 -220 0 -220 0 0 135 0 135 230 0 230 0 0 50 0 50 -290 0 -290 0 0 -455z"/><path d="M4896 2583 c62 -247 114 -452 114 -456 0 -4 35 -7 77 -5 l77 3 97 390 c53 215 99 383 102 375 4 -8 47 -182 97 -387 49 -204 90 -374 90 -377 0 -3 35 -6 78 -6 l77 0 109 438 c60 240 111 445 114 455 4 15 -3 17 -56 17 l-60 0 -92 -372 c-51 -205 -96 -376 -99 -380 -4 -4 -49 163 -101 372 l-95 380 -67 0 -67 0 -10 -35 c-5 -19 -46 -186 -91 -372 -46 -186 -86 -342 -90 -346 -4 -5 -49 163 -101 372 l-93 381 -62 0 -62 0 114 -447z"/></g></svg>
