<svg version="1.0" xmlns="http://www.w3.org/2000/svg" width="896pt" height="512pt" viewBox="0 0 896 512" preserveAspectRatio="xMidYMid meet"><rect width="100%" height="100%" fill="#ccc"/><g transform="translate(0,512) scale(0.1,-0.1)" fill="#999" stroke="none"><path d="M4298 4029 c-164 -20 -347 -79 -503 -162 l-80 -43 -3 -182 c-1 -100 0 -182 2 -182 3 0 36 20 73 43 286 184 546 252 762 202 311 -74 418 -391 215-641 -23 -28 -125 -134 -227 -235 -310 -309 -337 -370 -337 -759 l0 -210 184 0 184 0 4 233 3 232 34 70 c30 60 66 102 261 300 335 341 389 434 390 663 1 455 -408 740 -962 671z"/><path d="M4190 1320 l0 -250 195 0 195 0 0 250 0 250 -195 0 -195 0 0 -250z"/></g></svg>
