<svg version="1.0" xmlns="http://www.w3.org/2000/svg" width="200pt" height="200pt" viewBox="0 0 200 200" preserveAspectRatio="xMidYMid meet"><g transform="translate(0,159.1) scale(0.1,-0.1)" fill="#fff" stroke="none"><path fill="#fff" d="M21 1244 c-21 -26 -21 -36 -21 -543 0 -573 -1 -558 69 -628 71 -72 84 -73 635 -73 541 0 553 1 635 61 51 36 86 107 96 190 8 63 18 68 120 69 52 0 156 33 219 70 311 178 300 654 -19 817 -129 66 -78 63 -936 63 l-778 0 -20 -26z m1625 -253 c77 -56 104 -108 104 -198 0 -156 -107 -246 -277 -234 l-23 1 0 230 0 230 78 0 c71 0 83 -3 118 -29z m-614 -53 c93 -52 123 -166 74 -275 -22 -48 -57 -87 -198 -226 -94 -92 -178 -167 -186 -167 -16 0 -71 49 -249 223 -137 133 -158 170 -158 279 0 86 26 132 95 169 75 40 228 14 284 -49 l19 -22 49 36 c90 67 188 78 270 32z"/></g></svg>
