<svg version="1.0" xmlns="http://www.w3.org/2000/svg" width="512pt" height="512pt" viewBox="0 0 512 512" preserveAspectRatio="xMidYMid meet"><g transform="translate(0,512) scale(0.1,-0.1)" fill="#fff" stroke="none"><path d="M4820 4693 c-8 -3 -1048 -404 -2310 -890 -1262 -487 -2322 -899 -2355 -916 -164 -87 -196 -202 -79 -277 58 -37 64 -37 64 -5 0 51 56 123 113 144 42 16 182 14 223 -4 24 -10 42 -12 53 -6 9 5 80 13 157 16 117 6 145 5 170 -8 18 -9 35 -12 44 -7 9 5 79 12 156 15 148 8 164 5 212 -38 l22 -20 23 21 c34 32 72 42 160 42 60 -1 91 -6 117 -19 31 -17 37 -17 57 -4 16 11 41 13 100 9 43 -3 85 -5 93 -5 82 3 219 9 327 14 149 8 169 5 211 -30 19 -16 33 -21 37 -15 3 6 24 19 45 30 30 15 59 20 125 20 88 0 113 -7 152 -43 21 -18 24 -19 40 -5 10 9 32 23 50 32 43 21 182 22 224 1 23 -12 34 -13 51 -4 13 7 108 13 258 16 204 4 242 2 268 -11 17 -9 35 -24 41 -33 9 -16 11 -16 28 -1 42 36 81 48 165 48 51 -1 93 -6 108 -14 15 -9 31 -11 40 -6 27 15 294 24 317 11 27 -14 53 -4 53 20 0 40 35 59 110 59 75 0 110 -19 110 -58 0 -28 40 -43 71 -26 13 7 40 13 60 14 30 0 38 4 42 23 3 12 81 375 173 807 187 881 189 894 140 994 -40 81 -86 110 -180 113 -39 1 -78 0 -86 -4z"/><path d="M4450 2720 c0 -36 -2 -40 -25 -40 -21 0 -25 -5 -25 -30 0 -25 4 -30 24 -30 24 0 24 0 28 -124 2 -104 6 -127 22 -144 37 -42 116 -40 116 2 0 18 -7 25 -30 30 l-30 6 0 114 0 115 28 3 c21 2 28 9 30 31 3 24 0 27 -27 27 -29 0 -31 2 -31 40 l0 40 -40 0 -40 0 0 -40z"/><path d="M303 2680 c-33 -11 -83 -62 -83 -86 0 -25 60 -17 82 11 39 50 118 22 118 -42 0 -20 -5 -23 -37 -23 -54 0 -114 -19 -140 -43 -51 -46 -33 -135 32 -163 45 -19 63 -18 108 5 32 16 39 17 44 5 3 -9 20 -14 44 -14 37 0 38 1 29 26 -6 14 -10 74 -10 134 0 117 -9 151 -46 175 -31 20 -100 27 -141 15z m117 -224 c0 -57 -70 -97 -112 -63 -26 20 -28 44 -7 71 17 22 29 26 70 26 l49 0 0 -34z"/><path d="M710 2679 c-13 -6 -33 -17 -42 -26 -17 -15 -18 -15 -18 5 0 18 -6 22 -35 22 l-35 0 0 -175 0 -175 35 0 35 0 0 125 c0 120 1 127 25 150 28 29 61 32 93 9 21 -14 22 -22 22 -150 l0 -134 35 0 35 0 0 140 c0 160 -9 191 -61 209 -38 13 -56 13 -89 0z"/><path d="M1080 2679 c-13 -6 -33 -17 -42 -26 -17 -15 -18 -15 -18 5 0 18 -6 22 -35 22 l-35 0 0 -175 0 -175 35 0 35 0 0 125 c0 120 1 127 25 150 28 29 61 32 93 9 21 -14 22 -22 22 -150 l0 -134 35 0 35 0 0 140 c0 160 -9 191 -61 209 -38 13 -56 13 -89 0z"/><path d="M1416 2680 c-63 -20 -105 -91 -106 -178 0 -65 18 -110 59 -144 72 -61 192 -37 235 47 43 84 14 225 -53 260 -38 19 -99 26 -135 15z m105 -79 c26 -27 29 -36 29 -94 0 -56 -4 -70 -26 -96 -59 -70 -144 -14 -144 94 0 107 77 159 141 96z"/><path d="M1462 2500 c0 -14 2 -19 5 -12 2 6 2 18 0 25 -3 6 -5 1 -5 -13z"/><path d="M2200 2679 c-13 -6 -33 -17 -42 -26 -17 -15 -18 -15 -18 5 0 18 -6 22 -35 22 l-35 0 0 -175 0 -175 35 0 35 0 0 125 c0 120 1 127 25 150 28 29 61 32 93 9 21 -14 22 -22 22 -150 l0 -134 35 0 35 0 0 140 c0 160 -9 191 -61 209 -38 13 -56 13 -89 0z"/><path d="M2536 2680 c-67 -21 -106 -85 -106 -175 0 -68 18 -113 58 -147 65 -55 181 -38 216 31 23 43 20 51 -19 51 -24 0 -35 -5 -35 -14 0 -21 -39 -46 -70 -46 -45 0 -74 41 -77 113 -3 38 1 72 9 87 32 59 110 65 131 10 9 -25 17 -30 44 -30 25 0 33 4 33 18 0 24 -35 79 -58 91 -29 16 -93 21 -126 11z"/><path d="M2870 2668 c-65 -33 -93 -90 -87 -179 5 -82 31 -123 95 -151 52 -24 107 -19 159 13 36 22 41 40 19 58 -11 9 -21 7 -48 -9 -18 -11 -45 -20 -60 -20 -34 0 -86 46 -90 80 l-3 25 113 3 112 3 0 37 c-1 47 -32 116 -62 136 -43 28 -98 30 -148 4z m108 -55 c12 -10 24 -30 28 -45 l6 -28 -76 0 c-70 0 -76 2 -76 20 0 29 44 70 73 70 14 0 34 -8 45 -17z"/><path d="M3255 2670 c-47 -24 -45 -24 -45 -5 0 10 -11 15 -35 15 l-35 0 0 -175 0 -175 40 0 40 0 0 134 c0 128 1 136 22 150 31 22 64 20 88 -4 18 -18 20 -33 20 -150 l0 -130 35 0 35 0 0 125 c0 120 1 127 25 150 29 30 68 32 95 5 18 -18 20 -33 20 -150 l0 -130 36 0 35 0 -3 150 c-3 148 -3 150 -31 177 -37 37 -110 39 -157 5 -28 -21 -33 -22 -43 -8 -13 17 -59 36 -86 36 -9 0 -34 -9 -56 -20z"/><path d="M3790 2668 c-65 -33 -93 -90 -87 -179 5 -82 31 -123 95 -151 52 -24 107 -19 159 13 36 22 41 40 19 58 -11 9 -21 7 -48 -9 -18 -11 -45 -20 -60 -20 -34 0 -86 46 -90 80 l-3 25 113 3 112 3 0 37 c-1 47 -32 116 -62 136 -43 28 -98 30 -148 4z m108 -55 c12 -10 24 -30 28 -45 l6 -28 -76 0 c-70 0 -76 2 -76 20 0 29 44 70 73 70 14 0 34 -8 45 -17z"/><path d="M4190 2679 c-13 -6 -33 -17 -42 -26 -17 -15 -18 -15 -18 5 0 18 -6 22 -35 22 l-35 0 0 -175 0 -175 35 0 35 0 0 125 c0 120 1 127 25 150 28 29 61 32 93 9 21 -14 22 -22 22 -150 l0 -134 35 0 35 0 0 140 c0 160 -9 191 -61 209 -38 13 -56 13 -89 0z"/><path d="M4720 2674 c-46 -19 -70 -51 -70 -92 0 -45 35 -77 106 -98 87 -24 113 -54 78 -88 -33 -34 -124 -10 -124 32 0 7 -15 12 -35 12 -44 0 -47 -24 -9 -69 58 -69 208 -61 242 14 32 69 0 113 -107 145 -58 18 -72 26 -77 46 -9 37 12 56 60 52 31 -2 43 -8 51 -25 8 -18 18 -23 48 -23 35 0 38 2 32 23 -11 35 -45 66 -84 77 -48 13 -69 12 -111 -6z"/><path d="M1700 2550 c0 -155 11 -193 64 -215 46 -20 64 -19 109 4 32 16 39 17 44 5 3 -8 18 -14 34 -14 l29 0 0 175 0 175 -35 0 -35 0 0 -134 c0 -147 -2 -153 -62 -162 -21 -4 -40 0 -53 9 -18 14 -20 29 -23 151 l-4 136 -34 0 -34 0 0 -130z"/><path d="M2582 2500 c0 -14 2 -19 5 -12 2 6 2 18 0 25 -3 6 -5 1 -5 -13z"/><path d="M1635 2300 c-32 -53 -231 -71 -296 -27 -33 22 -35 22 -51 5 -13 -13 -34 -18 -75 -19 l-58 0 95 -31 c52 -16 96 -31 97 -32 1 -1 99 -321 218 -712 118 -390 220 -722 227 -737 19 -48 53 -67 122 -67 76 0 122 13 165 44 18 14 170 158 338 320 168 163 308 296 312 296 3 0 274 -198 601 -440 635 -469 652 -480 763 -480 91 0 167 60 205 161 17 47 362 1643 362 1677 0 9 -5 10 -19 2 -31 -16 -167 -12 -202 5 -22 12 -34 13 -50 5 -13 -7 -50 -9 -97 -6 -42 3 -86 5 -97 4 -36 -1 -218 -9 -317 -14 -82 -5 -102 -3 -135 14 -34 18 -41 18 -58 5 -15 -11 -39 -13 -100 -9 -44 3 -88 5 -97 5 -25 -1 -185 -1 -205 0 -10 0 -50 -2 -90 -5 -39 -3 -80 -1 -90 4 -13 7 -26 6 -43 -4 -16 -8 -58 -13 -113 -14 -88 0 -128 11 -169 48 -16 14 -20 14 -35 0 -42 -36 -82 -48 -165 -48 -61 1 -92 6 -118 19 -31 17 -37 17 -57 4 -16 -11 -41 -13 -100 -9 -43 3 -85 5 -93 5 -59 -2 -217 -9 -330 -15 -142 -7 -175 -1 -209 40 -15 18 -27 20 -36 6z"/></g></svg>
