<svg version="1.0" xmlns="http://www.w3.org/2000/svg" width="64pt" height="64pt" viewBox="0 0 64 64" preserveAspectRatio="xMidYMid meet"><g transform="translate(0.000000,64) scale(0.00625,-0.00625)" fill="#fff" stroke="none"><path d="M1 8273 c1 -1297 4 -1954 11 -1928 292 1204 988 2255 1983 2995 540 403 1164 700 1830 871 l110 28 -1967 1 -1968 0 1 -1967z"/><path d="M6455 10199 c1155 -305 2169 -991 2885 -1954 392 -526 688 -1144 859 -1790 l40 -150 0 1968 1 1967 -1967 -1 -1968 0 150 -40z"/><path d="M4152 7704 c-29 -8 -78 -25 -108 -39 -30 -14 -57 -25 -60 -25 -12 0 -143 -88 -179 -121 -22 -20 -56 -49 -75 -65 -77 -61 -170 -164 -170 -189 0 -7 100 -25 170 -30 85 -5 184 -24 176 -32 -3 -4 -207 -8 -453 -10 -247 -2 -475 -8 -508 -13 -67 -9 -222 -53 -236 -67 -6 -6 23 -32 70 -67 82 -59 105 -84 182 -201 78 -118 97 -165 68 -165 -4 0 -27 27 -52 60 -116 154 -344 327 -531 404 -64 26 -411 55 -611 50 -258 -6 -383 -16 -440 -34 -139 -44 -159 -50 -176 -50 -22 0 -115 -42 -176 -79 -28 -17 -57 -31 -65 -31 -18 0 -84 -69 -93 -97 -3 -13 -12 -29 -19 -35 -22 -23 -111 -161 -140 -218 -16 -30 -33 -61 -39 -68 -22 -28 -55 -112 -71 -183 -10 -41 -22 -92 -28 -114 -19 -69 -21 -241 -4 -293 8 -26 22 -83 30 -127 31 -168 39 -206 47 -211 5 -3 9 -20 9 -39 0 -19 4 -36 10 -40 5 -3 17 -30 26 -60 10 -30 21 -55 25 -55 4 0 10 -17 14 -37 9 -49 182 -396 224 -449 12 -15 21 -32 21 -38 0 -11 13 -24 85 -79 46 -36 144 -84 205 -101 145 -40 193 -50 290 -60 l105 -12 -34 -18 c-38 -20 -229 -18 -311 4 -25 6 -90 23 -145 38 -111 28 -150 49 -212 113 -40 42 -143 211 -143 235 0 6 -11 23 -24 37 -13 14 -41 59 -61 99 -21 40 -50 92 -65 115 -31 45 -100 186 -100 202 0 6 -7 25 -15 43 -8 18 -35 86 -60 150 -25 64 -55 134 -67 155 -41 72 -108 213 -108 228 0 21 -6 20 -84 -20 -39 -19 -77 -35 -86 -35 -9 0 -21 -5 -27 -11 -6 -6 -37 -16 -69 -22 l-59 -12 -3 -2992 -2 -2993 1967 1 1968 0 -149 40 c-761 202 -1441 552 -2033 1047 -114 96 -113 89 -29 149 28 20 71 57 96 81 25 25 73 59 105 76 33 18 92 53 131 78 38 26 104 64 146 86 42 22 99 57 127 76 28 20 55 36 61 36 5 0 10 4 10 8 0 5 11 14 24 20 14 6 62 35 108 65 46 30 115 72 154 93 39 22 93 51 119 67 27 15 59 30 71 33 13 3 28 12 35 20 6 8 18 14 26 14 8 0 26 9 40 20 14 11 31 20 37 20 6 0 74 32 151 71 150 76 179 92 298 163 43 25 82 46 86 46 10 0 106 60 129 81 26 22 197 120 222 126 14 3 54 21 90 39 80 40 141 63 200 75 48 10 85 22 220 74 116 44 179 64 220 69 19 3 64 9 100 15 36 6 144 15 240 22 95 6 192 18 213 25 22 8 65 14 97 14 31 0 101 7 154 15 62 9 179 14 319 15 122 0 251 5 287 11 102 16 290 27 465 29 88 0 178 5 200 10 22 5 58 13 80 18 199 46 492 286 586 482 37 76 59 130 59 145 0 9 7 32 15 52 14 34 16 35 33 19 40 -36 78 -21 197 75 83 68 131 118 171 179 16 25 32 47 37 48 4 2 7 8 7 14 0 5 18 40 40 76 106 181 144 338 137 572 -4 157 -10 191 -55 335 -46 149 -145 348 -197 399 -71 69 -228 213 -255 233 -48 36 -206 108 -330 150 -25 8 -108 47 -185 86 -151 76 -220 131 -276 218 -17 27 -34 49 -38 49 -3 0 -26 30 -51 68 -25 37 -50 72 -56 77 -14 14 -84 131 -84 142 0 8 -66 100 -132 184 -26 33 -41 58 -94 152 -15 26 -31 47 -36 47 -4 0 -24 25 -43 55 -20 30 -59 73 -88 95 -29 23 -65 51 -80 64 -31 25 -84 42 -262 81 -66 14 -159 35 -206 45 -48 11 -106 20 -131 20 -24 0 -70 7 -101 15 -32 8 -69 15 -83 15 -13 0 -57 9 -97 20 -80 22 -211 52 -242 55 -11 1 -24 3 -30 4 -5 1 -4 5 4 10 16 10 134 6 231 -8 36 -6 92 -12 125 -16 l60 -5 -50 46 c-93 87 -263 204 -331 227 -11 4 -37 18 -59 31 -39 24 -179 95 -240 122 -148 64 -402 104 -503 78z m-1129 -765 c22 -12 77 -68 77 -78 0 -4 11 -18 25 -33 26 -29 75 -114 75 -131 0 -6 6 -18 14 -26 21 -23 56 -130 56 -168 0 -57 -35 -44 -65 23 -14 31 -25 61 -25 66 0 23 -95 206 -126 241 -19 23 -34 46 -34 53 0 6 -7 17 -15 24 -14 12 -21 40 -9 40 3 0 15 -5 27 -11z m4535 -1580 c175 -25 292 -71 314 -123 15 -37 16 -129 2 -147 -6 -8 -17 -34 -24 -59 -7 -25 -19 -52 -25 -60 -7 -8 -32 -49 -55 -90 -105 -182 -172 -239 -258 -221 -102 21 -212 63 -212 80 0 5 9 15 20 22 72 51 -1 139 -155 187 -55 17 -112 34 -128 38 l-27 6 26 -51 c34 -68 24 -81 -60 -81 -199 0 -421 255 -319 366 42 47 151 106 208 115 28 4 73 14 100 23 80 24 411 21 593 -5z"/><path d="M9685 6129 c-141 -58 -479 -242 -525 -286 -18 -17 -97 -71 -166 -112 -28 -17 -62 -41 -75 -54 -13 -12 -42 -34 -65 -49 -22 -14 -75 -59 -118 -99 -43 -41 -84 -78 -92 -82 -8 -4 -14 -12 -14 -17 0 -14 61 21 188 108 240 165 281 192 402 271 69 44 132 85 140 91 31 22 258 150 335 190 44 23 84 46 90 51 17 17 -49 9 -100 -12z"/><path d="M9105 5035 c-5 -2 -46 -11 -90 -20 -44 -9 -95 -23 -113 -31 -18 -8 -43 -14 -55 -14 -12 0 -35 -9 -52 -20 -16 -11 -25 -20 -19 -20 30 0 213 31 253 43 25 8 82 22 126 32 44 10 84 22 90 27 8 7 -118 11 -140 3z"/><path d="M8825 4375 c55 -19 134 -44 175 -56 41 -12 84 -28 95 -35 11 -8 33 -14 50 -14 17 0 36 -5 42 -11 13 -13 123 -25 123 -13 -1 12 -71 44 -96 44 -10 0 -30 9 -44 20 -14 11 -31 20 -38 20 -8 0 -28 6 -45 14 -70 29 -242 65 -312 65 l-50 0 100 -34z"/><path d="M10202 3798 c-284 -1131 -993 -2181 -1957 -2898 -526 -392 -1144 -688 -1790 -859 l-150 -40 1968 0 1967 -1 0 1965 c0 1081 -1 1965 -3 1965 -1 0 -17 -60 -35 -132z"/></g></svg>
