<svg version="1.0" xmlns="http://www.w3.org/2000/svg" width="896pt" height="512pt" viewBox="0 0 896 512" preserveAspectRatio="xMidYMid meet"><rect width="100%" height="100%" fill="#ccc"/><g transform="translate(0,512) scale(0.1,-0.1)" fill="#999" stroke="none"><path d="M3870 3036 c-31 -6 -77 -24 -103 -39 -26 -16 -59 -45 -72 -65 -14 -21 -29 -61 -35 -90 -6 -33 -6 -70 0 -102 5 -28 14 -59 19 -69 6 -10 26 -32 45 -49 19 -16 58 -39 88 -50 29 -11 91 -28 138 -37 47 -10 104 -26 128 -37 23 -11 52 -34 64 -51 16 -22 22 -46 22 -82 0 -31 -7 -62 -18 -82 -11 -17 -37 -41 -59 -54 -28 -15 -63 -24 -112 -27 -39 -2 -95 1 -126 7 -30 6 -84 25 -118 41 -35 17 -65 30 -67 30 -3 0 -4 -28 -2 -62 l3 -62 60 -18 c33 -10 96 -23 141 -30 62 -9 100 -9 162 0 47 7 103 22 131 36 27 14 62 41 79 61 16 20 34 53 41 74 6 21 11 65 11 97 0 41 -7 75 -24 110 -13 28 -39 63 -57 76 -19 14 -49 33 -67 42 -18 9 -86 29 -150 43 -64 14 -134 34 -154 44 -21 11 -43 29 -49 41 -6 11 -11 43 -11 69 0 33 6 57 22 78 12 17 36 39 53 48 18 9 64 18 103 21 41 2 95 -1 125 -8 30 -7 78 -23 107 -36 l52 -23 0 59 0 59 -54 16 c-29 9 -80 20 -112 25 -32 6 -79 10 -104 9 -25 0 -70 -6 -100 -13z"/><path d="M2710 2575 l0 -455 60 0 60 0 2 380 3 379 200 -377 201 -377 82 -3 82 -3 0 456 0 455 -60 0 -60 0 -2 -375 -3 -375 -199 375 -199 375 -83 0 -84 0 0 -455z"/><path d="M4520 2575 l0 -455 60 0 60 0 0 220 0 220 185 0 185 0 0 50 0 50 -185 0 -185 0 0 135 0 135 200 0 200 0 0 50 0 50 -260 0 -260 0 0 -455z"/><path d="M5316 2583 c62 -247 114 -452 114 -456 0 -4 35 -7 77 -5 l77 3 97 390 c53 215 99 383 102 375 4 -8 47 -182 97 -387 49 -204 90 -374 90 -377 0 -3 35 -6 78 -6 l77 0 109 438 c60 240 111 445 114 455 4 15 -3 17 -56 17 l-60 0 -92 -372 c-51 -205 -96 -376 -99 -380 -4 -4 -49 163 -101 372 l-95 380 -67 0 -67 0 -10 -35 c-5 -19 -46 -186 -91 -372 -46 -186 -86 -342 -90 -346 -4 -5 -49 163 -101 372 l-93 381 -62 0 -62 0 114 -447z"/></g></svg>
