<svg role="img" width="286" height="286" viewBox="0 0 286 286"><path fill="#fff" stroke-width="32%" d="m 136,286 c -1.144,-0.0643 -3.952,-0.26778 -6.24,-0.45214 -2.288,-0.18436 -5.816,-0.55675 -7.84,-0.82755 -2.024,-0.27079 -6.17222,-0.99079 -9.21828,-1.6 -3.04605,-0.60921 -7.72605,-1.74202 -10.4,-2.51734 -2.673944,-0.77532 -6.464475,-1.98457 -8.423397,-2.68721 -1.958925,-0.70264 -4.982925,-1.87916 -6.72,-2.61448 -1.737078,-0.73532 -5.102323,-2.30406 -7.478323,-3.48609 -2.376,-1.18203 -5.544,-2.84862 -7.04,-3.70353 -1.496,-0.8549 -4.580499,-2.76381 -6.854438,-4.24201 -2.273943,-1.4782 -5.585943,-3.77823 -7.36,-5.11119 C 56.651501,256.9938 53.544,254.52274 51.52,252.8355 c -2.024,-1.68724 -5.941286,-5.27914 -8.705078,-7.982 -2.763796,-2.70286 -6.651796,-6.78153 -8.64,-9.0637 -1.988208,-2.28218 -5.273312,-6.36653 -7.300234,-9.07633 -2.026922,-2.70981 -5.040196,-7.12889 -6.696167,-9.82019 -1.65597,-2.6913 -4.111891,-7.05327 -5.457601,-9.69327 -1.34571,-2.64 -3.175148,-6.53227 -4.065418,-8.64948 -0.8902687,-2.11722 -2.3516009,-6.00522 -3.2474038,-8.64 -0.8958032,-2.63479 -2.2042006,-7.02252 -2.90755,-9.75052 -0.7033495,-2.728 -1.6347671,-6.904 -2.0698169,-9.28 -0.4350498,-2.376 -1.0102841,-6.048 -1.2782984,-8.16 -0.26801424,-2.112 -0.63695389,-5.77679 -0.8198658,-8.14397 C 0.1496552,152.20886 0,146.93777 0,142.86251 0,138.78725 0.14642652,133.59603 0.32539229,131.32647 0.50435802,129.05692 0.87502538,125.4 1.1490975,123.2 c 0.2740721,-2.2 0.8572654,-5.872 1.2959852,-8.16 0.4387197,-2.288 1.2201419,-5.84393 1.7364936,-7.90207 0.516352,-2.05813 1.4533146,-5.44213 2.0821395,-7.519997 0.628825,-2.077862 2.0681712,-6.110371 3.1985469,-8.961133 1.1303753,-2.850762 2.9113093,-6.954762 3.9576293,-9.12 1.046321,-2.165239 2.788523,-5.520797 3.871561,-7.456797 1.083038,-1.936 3.44658,-5.752061 5.252315,-8.480135 1.805735,-2.728071 4.404075,-6.400071 5.77409,-8.16 1.370014,-1.759927 3.514957,-4.421037 4.766539,-5.913578 1.251581,-1.492544 4.651603,-5.147133 7.555603,-8.121312 2.904,-2.97418 7.269754,-7.124951 9.701677,-9.223937 2.43192,-2.098989 6.155014,-5.109142 8.273542,-6.689232 2.118525,-1.580089 5.456771,-3.929799 7.418323,-5.221578 1.961552,-1.291778 5.294458,-3.328607 7.406458,-4.526285 2.112,-1.197678 5.712,-3.076965 8,-4.176192 2.288,-1.099228 5.672,-2.602735 7.52,-3.341127 1.848,-0.7383915 4.368,-1.6956126 5.6,-2.1271573 1.232,-0.4315446 3.608,-1.2143034 5.28,-1.7394637 1.672,-0.5251604 4.984,-1.4423341 7.36,-2.0381639 2.376,-0.5958295 5.904,-1.3723545 7.84,-1.7256107 1.936,-0.3532562 5.104,-0.8626087 7.04,-1.1318944 1.936,-0.2692857 5.392,-0.6652282 7.68,-0.87987215 2.288,-0.21464394 8.336,-0.38157128 13.44,-0.37094962 6.23387,0.012973 10.96062,0.19332088 14.4,0.54942822 2.816,0.29156385 7.352,0.88999655 10.08,1.32985035 2.728,0.4398538 7.59659,1.4497775 10.81909,2.2442745 3.22251,0.7944973 8.04651,2.1775972 10.72,3.0735556 2.6735,0.8959585 6.87691,2.4859294 9.34091,3.5332691 2.464,1.047339 6.67242,3.037173 9.35205,4.421852 2.67962,1.38468 6.83211,3.745457 9.22774,5.246171 2.39563,1.500715 6.09011,3.992963 8.20997,5.538329 2.11985,1.545366 5.66977,4.321756 7.88871,6.169756 2.21893,1.848 6.02448,5.29488 8.45677,7.659732 2.43228,2.364851 5.88988,5.944137 7.68355,7.953965 1.79366,2.00983 4.60087,5.33095 6.23823,7.380269 1.63736,2.049318 4.61289,6.174035 6.61229,9.166035 1.9994,2.992 4.53933,7.024001 5.64428,8.960001 1.10496,1.936 2.9216,5.431376 4.03699,7.767501 1.11538,2.336125 2.66512,5.803161 3.44387,7.704528 0.77874,1.901363 2.13068,5.605991 3.00429,8.232499 0.87362,2.626509 2.16363,7.079469 2.86671,9.895469 0.70308,2.816 1.64847,7.31503 2.10087,9.99784 0.4524,2.68282 1.07135,7.07482 1.37546,9.76 l 0.55292,4.88216 0.0112,11.2 0.0112,11.20001 -0.58352,5.12 c -0.32093,2.816 -0.93653,7.208 -1.36798,9.76 -0.43146,2.552 -1.36448,6.99988 -2.07338,9.88419 -0.7089,2.88431 -2.05752,7.56431 -2.99693,10.4 -0.93941,2.83569 -2.598,7.24381 -3.68576,9.79581 -1.08776,2.552 -3.11066,6.83242 -4.49534,9.51205 -1.38468,2.67962 -3.74545,6.8321 -5.24617,9.22774 -1.50071,2.39563 -3.98852,6.07965 -5.52844,8.18671 -1.53993,2.10706 -4.07285,5.37058 -5.62871,7.25226 -1.55585,1.88168 -4.6563,5.35589 -6.88988,7.72046 -2.23358,2.36458 -5.78905,5.87569 -7.90105,7.80247 -2.112,1.92678 -5.712,5.00453 -8,6.83945 -2.288,1.83491 -6.608,4.97326 -9.6,6.97409 -2.992,2.00084 -7.312,4.67972 -9.6,5.95306 -2.288,1.27335 -5.672,3.02305 -7.52,3.88823 -1.848,0.86518 -4.872,2.19635 -6.72,2.95817 -1.848,0.76182 -4.872,1.91194 -6.72,2.55582 -1.848,0.64388 -5.3449,1.73319 -7.77089,2.42068 -2.42599,0.68749 -6.52999,1.68237 -9.12,2.21083 -2.59001,0.52845 -6.18179,1.18033 -7.98172,1.44861 -1.79994,0.26828 -5.52161,0.70323 -8.27038,0.96656 -2.74877,0.26333 -8.26009,0.53486 -12.24739,0.60341 -3.98729,0.0685 -8.18562,0.072 -9.32962,0.008 z m 21.28,-21.70148 c 2.288,-0.26753 5.84456,-0.77529 7.90347,-1.12835 2.05891,-0.35306 5.74091,-1.14494 8.18223,-1.75974 2.44132,-0.6148 6.01276,-1.64328 7.93653,-2.28553 1.92377,-0.64224 4.86577,-1.71315 6.53777,-2.37981 1.672,-0.66665 4.408,-1.84932 6.08,-2.62814 1.672,-0.77882 4.768,-2.39707 6.88,-3.59612 2.112,-1.19905 4.92,-2.90127 6.24,-3.78272 1.32,-0.88145 2.45243,-1.64541 2.5165,-1.69768 0.0641,-0.0523 -0.19297,-0.59578 -0.57121,-1.20779 -0.37824,-0.61201 -1.51624,-1.87958 -2.52889,-2.81683 -1.01265,-0.93725 -2.7363,-2.18091 -3.83034,-2.76368 -1.09403,-0.58278 -3.03246,-1.41542 -4.30761,-1.85032 -1.27514,-0.4349 -3.61445,-0.99656 -5.19845,-1.24813 -1.584,-0.25156 -4.32,-0.55267 -6.08,-0.66912 -1.76,-0.11645 -5.504,-0.0412 -8.32,0.16726 -2.816,0.20845 -6.56,0.6664 -8.32,1.01767 -1.76,0.35127 -4.712,1.07639 -6.56,1.61139 -1.848,0.535 -7.68,2.52449 -12.96,4.4211 l -9.6,3.44839 -10.88,2.29063 c -5.984,1.25985 -11.55789,2.44305 -12.38642,2.62934 -0.82853,0.18628 -2.31164,0.82358 -3.29582,1.41622 -0.98417,0.59263 -3.40228,2.40492 -5.37358,4.02729 -1.9713,1.62238 -3.7755,3.12107 -4.00934,3.33041 l -0.42516,0.38064 3.62516,1.0034 c 1.99384,0.55188 5.56916,1.42894 7.94516,1.94902 2.376,0.52009 6.408,1.24357 8.96,1.60773 2.552,0.36417 6.152,0.79286 8,0.95266 1.848,0.15979 7.032,0.23579 11.52,0.16888 4.488,-0.0669 10.032,-0.34053 12.32,-0.60807 z m -49.53686,-32.34697 c 0.37705,-0.2641 0.94751,-1.2361 1.26769,-2.16 l 0.58215,-1.67983 -0.0285,-6.24 c -0.0168,-3.67807 -0.32644,-9.52453 -0.75416,-14.24 l -0.72564,-8 0.18448,-4 c 0.10146,-2.2 0.39589,-5.16645 0.65428,-6.5921 0.2584,-1.42566 0.76372,-3.82963 1.12295,-5.34216 0.35922,-1.51253 1.24939,-4.59409 1.97816,-6.8479 0.72876,-2.25382 1.88548,-5.17784 2.57048,-6.49784 0.68501,-1.32 1.95992,-3.34944 2.83315,-4.50986 0.87323,-1.16042 2.59136,-3.05667 3.81807,-4.21389 1.22672,-1.15722 3.03769,-2.70042 4.02438,-3.42933 0.9867,-0.72892 3.75053,-2.54415 6.14185,-4.03384 2.39132,-1.4897 5.66178,-3.69705 7.26768,-4.90522 1.60591,-1.20818 3.73197,-3.04937 4.72458,-4.09155 0.99261,-1.04218 2.23251,-2.7502 2.75534,-3.7956 0.52284,-1.04539 1.27177,-2.83672 1.66431,-3.98072 0.39254,-1.144 0.91664,-3.13666 1.16466,-4.42815 0.24802,-1.29148 0.44994,-3.37948 0.44871,-4.64 -0.001,-1.26051 -0.27948,-3.44385 -0.61834,-4.85185 -0.33885,-1.408 -1.07211,-3.856 -1.62946,-5.44 -0.55736,-1.584 -1.60509,-4.02277 -2.32829,-5.4195 -0.73225,-1.41421 -2.14489,-3.42676 -3.18795,-4.54181 -1.03018,-1.10126 -3.0409,-2.75144 -4.46826,-3.66705 -1.42737,-0.91562 -4.04795,-2.34484 -5.82351,-3.17604 -1.77557,-0.831213 -4.66687,-2.050662 -6.42513,-2.709894 -1.75825,-0.659232 -5.42882,-1.754736 -8.15682,-2.434451 -2.728,-0.679719 -6.904,-1.603111 -9.28,-2.051985 -2.376,-0.448873 -5.35192,-1.090768 -6.61316,-1.426432 C 99.645606,91.837178 96.837606,91.39041 94.666842,91.180019 92.49608,90.969632 88.992,90.877926 86.88,90.976227 c -2.112234,0.09831 -4.607245,0.413786 -5.545219,0.701143 -1.043312,0.319625 -2.099123,0.43926 -2.72,0.308208 -0.558131,-0.117808 -1.726986,-0.594756 -2.597463,-1.059885 -0.870473,-0.46513 -2.682598,-1.92569 -4.02694,-3.24569 -1.505588,-1.478326 -2.77186,-3.069302 -3.297319,-4.142829 L 67.84,81.794342 v -1.732378 -1.732377 l 1.00944,-1.893904 c 0.555194,-1.041648 1.95712,-3.005805 3.115395,-4.364794 1.158272,-1.358986 5.759056,-6.271591 10.223965,-10.916896 4.464909,-4.645306 8.588672,-9.181767 9.16392,-10.081028 0.575248,-0.899258 1.582298,-2.277034 2.237888,-3.061722 0.65559,-0.784691 2.005901,-2.061069 3.000688,-2.836397 0.994787,-0.775328 3.2324,-2.421305 4.972474,-3.657725 1.74007,-1.236422 5.00736,-3.722508 7.26064,-5.524643 2.25328,-1.802131 5.65358,-4.252833 7.55623,-5.446003 1.90265,-1.19317 4.17936,-2.707055 5.05936,-3.36419 0.88,-0.657135 2.248,-1.874092 3.04,-2.704349 l 1.44,-1.509559 -1.92,0.220418 c -1.056,0.121231 -3.792,0.579955 -6.08,1.019386 -2.288,0.439432 -5.744,1.213206 -7.68,1.719498 -1.936,0.506292 -5.09953,1.445398 -7.03007,2.086903 -1.93053,0.641504 -4.954532,1.737299 -6.719997,2.4351 -1.765463,0.6978 -5.225933,2.252674 -7.689933,3.455279 -2.464,1.202605 -6.389219,3.345034 -8.722707,4.760954 -2.333491,1.41592 -5.501491,3.475837 -7.04,4.577591 C 71.498781,44.345259 68.512,46.62003 66.4,48.298555 c -2.112,1.678522 -6.368573,5.574016 -9.45905,8.656653 -3.090476,3.082637 -6.994777,7.332794 -8.676227,9.444794 -1.681446,2.112 -4.280157,5.640001 -5.774909,7.840001 -1.494755,2.2 -3.523596,5.378077 -4.508537,7.06239 -0.984941,1.684314 -2.719344,4.924314 -3.854234,7.2 -1.134886,2.275687 -2.653743,5.558353 -3.375236,7.29482 -0.721494,1.736464 -1.311807,3.284464 -1.311807,3.44 0,0.155533 0.501114,0.28279 1.113587,0.28279 0.612472,0 3.744471,0.287191 6.96,0.638207 3.215527,0.35101 7.18968,0.79484 8.831453,0.98628 1.64177,0.19145 4.410042,0.69313 6.151715,1.11486 1.741674,0.42172 4.141895,1.20895 5.333831,1.7494 1.191932,0.54045 2.581395,1.37158 3.087696,1.84695 0.506297,0.47537 1.118806,1.32768 1.361129,1.89403 0.242323,0.56634 0.440589,1.60291 0.440589,2.30348 0,0.70056 -0.361616,2.41847 -0.80359,3.81757 -0.441978,1.3991 -1.864333,4.61054 -3.160791,7.13652 -1.296461,2.52599 -2.867577,5.9607 -3.491376,7.6327 -0.623798,1.672 -1.377949,4.336 -1.675891,5.92 -0.371267,1.97385 -0.495616,3.85197 -0.39521,5.96916 l 0.146503,3.08915 1.133881,2.35085 c 0.623636,1.29296 1.834218,3.20413 2.69018,4.24703 0.855961,1.0429 2.646793,2.7709 3.979625,3.84 1.332832,1.0691 3.564832,2.76647 4.96,3.77193 1.395168,1.00546 3.547792,2.83742 4.78361,4.07101 1.235817,1.2336 2.736323,3.05038 3.334457,4.0373 l 1.087517,1.79439 0.404656,5.65459 c 0.22256,3.11003 0.640944,7.2386 0.929741,9.1746 0.2888,1.936 1.219376,7.192 2.067952,11.68 0.848576,4.488 1.635939,8.82685 1.749693,9.64189 0.114515,0.82047 0.709344,2.31641 1.332685,3.35157 0.619219,1.02832 1.944966,3.00811 2.946105,4.39955 1.001139,1.39143 3.097757,4.05922 4.659152,5.92843 1.561395,1.86921 4.441395,5.03008 6.4,7.02415 1.958605,1.99408 4.472811,4.28308 5.587111,5.08665 1.11431,0.80359 2.55431,1.64975 3.2,1.88036 0.6457,0.23062 1.46595,0.42563 1.82279,0.43335 0.35684,0.008 0.95729,-0.20203 1.33434,-0.46612 z m 134.27213,-18.54929 c 1.5484,-2.18755 3.96926,-5.89283 5.3797,-8.23395 1.41044,-2.34113 3.62843,-6.41659 4.92889,-9.05659 1.30044,-2.64 3.14763,-6.816 4.10484,-9.28 0.95722,-2.464 2.18002,-5.92 2.71734,-7.68 0.53732,-1.76 1.33823,-4.64 1.7798,-6.4 0.44156,-1.76 1.15917,-5.144 1.59468,-7.52 0.43551,-2.376 1.02256,-6.552 1.30456,-9.28 0.31854,-3.08149 0.51252,-7.86867 0.51219,-12.64 -3.2e-4,-4.75802 -0.19541,-9.56712 -0.51272,-12.64001 -0.28171,-2.728 -0.86852,-6.904 -1.30403,-9.28 -0.43551,-2.376 -1.15312,-5.76 -1.59468,-7.52 -0.44157,-1.76 -1.24248,-4.64 -1.7798,-6.4 -0.53732,-1.76 -1.7459,-5.17594 -2.68573,-7.590979 -0.93983,-2.41504 -2.48103,-6.01504 -3.42488,-8 -0.94386,-1.98496 -2.70441,-5.337018 -3.91235,-7.449018 -1.20793,-2.112 -3.20073,-5.352 -4.42843,-7.2 -1.2277,-1.848 -3.31671,-4.8 -4.64224,-6.560001 -1.32553,-1.76 -3.49232,-4.496 -4.81508,-6.08 -1.32276,-1.584 -4.42829,-4.90327 -6.90117,-7.376157 -2.47289,-2.472883 -5.79216,-5.577283 -7.37616,-6.898662 -1.584,-1.321383 -4.032,-3.269537 -5.44,-4.329239 -1.408,-1.059699 -3.856,-2.79152 -5.44,-3.84849 -1.584,-1.056969 -4.15678,-2.672845 -5.71728,-3.590832 -1.56051,-0.917987 -4.58451,-2.545805 -6.72,-3.617373 -2.1355,-1.071565 -5.03472,-2.444403 -6.44272,-3.050752 -1.408,-0.606347 -4.05553,-1.66631 -5.8834,-2.355473 -1.82786,-0.689163 -3.499,-1.253023 -3.71363,-1.253023 -0.21463,0 -0.9914,0.857013 -1.72615,1.904473 -0.73475,1.047461 -1.78132,2.856295 -2.32571,4.01963 l -0.9898,2.115155 0.36118,2.816365 c 0.19865,1.548998 0.64416,3.922777 0.99001,5.275062 0.34586,1.352288 1.0791,3.40216 1.62944,4.55528 0.55033,1.153117 1.57722,2.673197 2.28198,3.377959 0.70476,0.704758 2.07591,1.645126 3.047,2.089706 l 1.7656,0.80832 1.80174,-0.175021 c 1.06638,-0.103587 3.76081,-0.927095 6.60174,-2.017712 l 4.8,-1.842695 3.2,-0.396198 3.2,-0.396198 0.89014,1.012937 c 0.48958,0.557117 1.20451,1.660938 1.58874,2.452938 0.40325,0.831203 0.75222,2.274346 0.82545,3.413498 l 0.12685,1.973497 -0.79354,1.706503 c -0.47651,1.02471 -2.22363,3.304605 -4.37298,5.706502 -1.96869,2.2 -5.06071,5.944001 -6.87117,8.320001 -1.81045,2.376 -3.96205,5.331373 -4.78134,6.567494 -0.81929,1.236122 -1.77485,3.059028 -2.12347,4.050906 -0.34862,0.991875 -0.7939,2.834947 -0.98951,4.095712 l -0.35566,2.292301 0.34211,2.542102 c 0.18816,1.398157 0.71402,3.655713 1.16856,5.016794 0.45455,1.361078 1.40035,3.542798 2.10178,4.848258 0.70142,1.30546 1.95228,3.39346 2.77968,4.64 0.8274,1.24654 2.72836,3.50071 4.22436,5.00927 1.496,1.50855 3.77972,3.43806 5.07493,4.28779 1.29521,0.84973 3.41475,1.95649 4.71009,2.45948 1.29534,0.50298 3.2848,1.13011 4.42103,1.39362 1.13623,0.2635 3.76253,0.61739 5.83623,0.78641 l 3.77036,0.30731 2.05605,1.01219 c 1.25999,0.62029 2.79002,1.75764 3.95176,2.93756 l 1.89572,1.92538 1.73223,3.55372 c 0.95272,1.95454 2.24346,5.09253 2.8683,6.97333 0.62484,1.88079 1.41463,4.76079 1.75509,6.4 0.34046,1.6392 0.87381,5.28438 1.18521,8.10038 0.37915,3.42853 0.56699,7.60433 0.56858,12.64 0.001,4.48717 -0.16776,8.74603 -0.41949,10.56 -0.23203,1.672 -0.77338,4.72597 -1.203,6.78661 -0.42962,2.06063 -1.43806,5.58863 -2.24098,7.84 -0.80292,2.25136 -1.87579,5.24539 -2.38417,6.65339 l -0.92431,2.56 -0.007,2.90192 c -0.004,1.73456 0.19831,3.60109 0.50309,4.64 0.28045,0.95594 0.93896,2.49397 1.46335,3.41783 0.52439,0.92387 1.67738,2.47187 2.5622,3.44 0.88482,0.96814 1.70232,1.75753 1.81666,1.7542 0.11433,-0.003 1.47476,-1.79586 3.02316,-3.98341 z" /></svg>
