<svg version="1.1" width="232" height="232" viewBox="0 0 232 232"><path fill="#fff" transform="translate(0,11.36)" style="fill:#fff;stroke-width:0.32" d="M 70.444774,208.93496 C 65.66439,208.31514 58.337993,205.99984 53.66678,203.63276 42.140674,197.79204 32.777601,187.56799 30.051289,177.84572 29.075203,174.36491 29.0062,168.57192 29.903519,165.44 c 1.589978,-5.54951 4.668684,-10.32183 9.242889,-14.32744 3.613264,-3.16412 5.360311,-5.34485 11.722529,-14.63256 8.174922,-11.93393 10.46935,-14.38086 15.039827,-16.03945 5.150113,-1.86893 9.68594,-4.51849 22.89124,-13.37167 14.880886,-9.976544 23.837416,-13.24064 31.739076,-11.566922 7.14222,1.512858 13.40077,4.617132 24.58093,12.192262 11.19647,7.58619 16.00193,10.39352 21.36448,12.48105 5.26713,2.05039 7.7354,4.67428 16.39123,17.42473 5.41482,7.97628 7.72427,10.79 11.13907,13.57128 1.92647,1.56907 4.96678,5.32697 6.42957,7.94713 0.61461,1.10088 1.58499,3.36959 2.15642,5.04159 0.9506,2.78148 1.03983,3.38015 1.04917,7.04 0.008,3.20373 -0.13349,4.50962 -0.71168,6.56 -2.8356,10.05556 -11.99913,19.98537 -23.89826,25.89672 -7.88301,3.91618 -14.21587,5.47698 -22.08,5.44182 -4.01672,-0.018 -5.45274,-0.16618 -8.8,-0.90835 -8.52351,-1.88986 -20.049,-5.85934 -28.26407,-9.73437 l -3.4189,-1.61269 -3.43852,1.61579 c -9.88871,4.64677 -22.563057,8.79732 -31.560433,10.33529 -3.019904,0.51622 -7.679133,0.57565 -11.033313,0.14075 z M 20.160001,145.95763 C 11.975482,143.31649 4.2134763,134.38094 1.0861556,124 0.29653463,121.3789 0.20569378,120.53334 0.07565531,114.59407 -0.18797996,102.55302 1.1025788,95.558157 5.1381641,87.155139 7.283385,82.688294 8.7932609,80.142845 11.892118,75.768864 17.751239,67.498829 21.632564,63.9532 25.651908,63.199165 c 1.471352,-0.276026 3.514358,0.291821 4.729953,1.314675 1.919945,1.615526 7.74528,11.144365 11.814806,19.32616 8.250577,16.58781 10.103918,27.38881 6.753777,39.36 -3.514676,12.55913 -15.035553,23.41684 -24.768523,23.34279 -1.244056,-0.009 -3.05392,-0.27279 -4.02192,-0.58516 z m 183.680009,-0.003 C 195.25355,143.17209 187.88985,135.54 184.115,125.51114 c -1.94222,-5.16 -2.79122,-12.63468 -2.05837,-18.12204 1.36229,-10.2003 7.18527,-23.850978 16.11975,-37.78917 2.78291,-4.341476 3.78734,-5.441552 5.60074,-6.134093 2.85226,-1.089293 6.53264,0.500413 10.43842,4.508777 4.06217,4.168868 9.94601,12.814986 12.8654,18.905316 4.10202,8.557456 5.41123,15.57296 5.16558,27.68 -0.122,6.01267 -0.20599,6.80029 -1.00669,9.44 -2.6857,8.85404 -8.60238,16.62268 -15.55982,20.43013 -3.8677,2.11659 -8.26664,2.68318 -11.84,1.52501 z M 68.354582,98.392954 c -3.45584,-0.948871 -5.657456,-2.346333 -9.009331,-5.718621 -6.978558,-7.021056 -10.85019,-16.481911 -11.252513,-27.497015 -0.212586,-5.820355 0.06886,-7.707955 2.339629,-15.6911 3.0308,-10.655149 6.126803,-17.282516 11.376749,-24.353316 5.669175,-7.635427 18.226311,-18.7023702 25.619137,-22.5788358 8.109258,-4.2521296 13.422367,-2.8186574 15.740437,4.2467568 6.4548,19.674079 9.16494,34.373782 8.73621,47.384947 -0.26589,8.069395 -1.70066,14.034617 -4.93893,20.53423 -4.21787,8.465792 -11.572299,16.143558 -19.295147,20.143453 -6.62274,3.430115 -14.461588,4.862445 -19.316241,3.529501 z m 87.165428,0.01184 C 147.80347,96.864941 140.75643,92.80464 134.53542,86.31407 128.20508,79.709427 124.226,72.102886 122.19306,62.72 c -0.64285,-2.967085 -0.72846,-4.258093 -0.73201,-11.04 -0.004,-8.414934 0.50545,-13.099046 2.4034,-22.08 1.73642,-8.21656 5.69509,-22.1149629 7.20573,-25.2983933 1.77753,-3.74586056 6.03931,-5.04893156 11.05449,-3.37998849 6.13632,2.04203469 18.54922,11.63295479 25.85492,19.97697679 7.98209,9.116564 11.67993,16.564413 15.75906,31.740509 1.17258,4.362467 1.30521,5.255072 1.45242,9.77424 0.13793,4.233965 0.0584,5.518458 -0.53508,8.64 -2.62945,13.830787 -10.67096,24.906522 -19.8584,27.351357 -2.12634,0.565833 -6.44232,0.565875 -9.27758,9.3e-5 z" /></svg>
