<svg version="1.1" width="110" height="110" viewBox="0 0 110 110"><g transform="translate(0.12,17.56)"><path fill="#fff" style="fill:#fff;fill-opacity:1;stroke-width:0.31999999" d="M 88.16,74.35945 C 87.808,74.27136 86.584,73.900429 85.44,73.535165 84.296,73.169904 82.655683,72.518346 81.794854,72.087258 80.934022,71.65617 79.530022,70.573703 78.674854,69.68178 77.819683,68.789853 77.12,67.794576 77.12,67.470048 c 0,-0.324527 0.0859,-0.590051 0.190896,-0.590051 0.104992,0 0.860992,0.591165 1.68,1.313699 0.819008,0.722535 2.292618,1.72025 3.274691,2.21714 0.982074,0.496892 2.658861,1.129728 3.726192,1.4063 1.067331,0.276573 2.86568,0.502861 3.99633,0.502861 1.130653,0 2.778595,-0.214669 3.662093,-0.47704 0.8835,-0.262371 2.094211,-0.805795 2.690467,-1.207613 0.596256,-0.401817 1.411529,-1.216444 1.811715,-1.810284 0.400189,-0.59384 0.727078,-1.526413 0.726419,-2.072384 -6.4e-4,-0.545975 -0.279632,-1.449319 -0.619945,-2.007437 C 97.918544,64.187121 97.019085,63.372468 96.260054,62.934897 95.501024,62.497325 93.368,61.536222 91.52,60.799108 89.421866,59.962222 87.82951,59.107943 87.28,58.524401 86.796,58.010426 86.4,57.259694 86.4,56.85611 c 0,-0.403584 0.183395,-0.984599 0.407546,-1.291139 0.22415,-0.306544 1.602624,-0.904797 3.063276,-1.32945 1.460653,-0.424653 3.133927,-1.067638 3.718388,-1.428854 0.58446,-0.361216 1.293984,-1.14425 1.576723,-1.740074 C 95.448669,50.470769 95.68,49.548088 95.68,49.01619 c 0,-0.567706 -0.334282,-1.364358 -0.809446,-1.929059 -0.465197,-0.552858 -1.451869,-1.168714 -2.32,-1.448086 -0.830804,-0.267364 -2.365002,-0.637524 -3.409325,-0.82258 -1.044323,-0.185056 -3.382391,-0.336467 -5.195706,-0.336467 h -3.296934 l -0.50329,1.2 c -0.276813,0.66 -0.933382,2.64 -1.459049,4.4 -0.525664,1.76 -1.320301,4.928 -1.765856,7.04 -0.445556,2.112 -1.076445,4.446627 -1.401975,5.18806 l -0.591869,1.348064 -0.823276,0.206627 c -0.4528,0.113645 -1.172176,0.11906 -1.598612,0.01203 -0.426435,-0.107027 -1.212729,-0.56264 -1.747318,-1.012467 -0.534592,-0.449827 -1.945798,-2.069868 -3.136019,-3.600092 -1.190221,-1.530224 -3.523975,-4.294224 -5.186122,-6.142224 -1.662147,-1.848 -3.199693,-3.556515 -3.416768,-3.796698 L 58.62375,48.886603 56.431875,49.604331 C 55.226342,49.99908 51.936,51.224232 49.12,52.326888 46.304,53.429547 42.2,55.147867 40,56.14538 c -2.2,0.997511 -6.331792,3.02633 -9.181758,4.508483 -2.849966,1.482154 -7.097966,3.791376 -9.44,5.131603 -2.342033,1.340231 -5.63683,3.349651 -7.321771,4.465386 -1.68494,1.115734 -3.419173,2.117865 -3.85385,2.226963 L 9.4122998,72.676173 8.5461501,71.994858 C 7.9889747,71.556586 7.6804266,71.007917 7.6811962,70.456772 c 6.72e-4,-0.471226 0.3078176,-1.360775 0.6825766,-1.976775 0.3747594,-0.616 1.7948312,-2.56 3.1557162,-4.32 1.360884,-1.759999 3.297847,-4.464678 4.304361,-6.010393 1.006514,-1.545715 2.664461,-4.569715 3.684327,-6.72 1.019865,-2.150284 2.369441,-5.493606 2.999058,-7.429606 0.629616,-1.936 1.43924,-4.696704 1.799164,-6.134896 0.359924,-1.438191 1.236573,-5.470191 1.948109,-8.959999 0.711536,-3.489807 1.436904,-6.885104 1.611931,-7.545104 0.175026,-0.66 0.456679,-1.2 0.625895,-1.2 0.169216,0 0.307666,0.853299 0.307666,1.896219 0,1.04292 -0.493926,5.18292 -1.097614,9.2 -0.603687,4.01708 -1.466584,8.938248 -1.917549,10.935931 -0.450965,1.99768 -1.333013,5.16568 -1.960108,7.039999 -0.627095,1.874317 -1.7724,4.742669 -2.545124,6.374119 -0.772723,1.631446 -1.716457,3.403737 -2.097187,3.938422 -0.38073,0.534688 -0.622162,1.04223 -0.536515,1.127878 0.08565,0.08565 1.533804,-0.712477 3.218127,-1.773609 1.684323,-1.06113 4.977957,-3.033296 7.319188,-4.382589 C 31.524448,53.167076 36.392,50.608609 40,48.830891 c 3.608,-1.777718 8.180346,-3.872704 10.160771,-4.655526 l 3.600768,-1.423309 -0.902096,-0.976029 c -0.496153,-0.536816 -2.712816,-2.992029 -4.925917,-5.456028 -2.2131,-2.464 -6.091504,-6.501986 -8.618675,-8.973303 C 36.787683,24.875379 33.28,21.619118 31.52,20.11056 29.76,18.602001 26.708088,16.159988 24.737973,14.683863 22.767858,13.207738 19.671858,11.068566 17.857973,9.9301481 16.044088,8.7917299 12.80281,6.9749514 10.655133,5.8928631 8.5074563,4.8107745 5.4834563,3.5334031 3.9351331,3.05426 2.3868099,2.5751168 0.91257075,2.0776074 0.65904611,1.9486835 0.40552144,1.8197597 0.14743539,1.5623061 0.08552152,1.3765645 0.02360766,1.1908229 0.181338,0.95888687 0.43603341,0.86115107 0.6907288,0.7634153 1.8848149,0.88897084 3.089558,1.1401634 4.2943011,1.391356 6.648,2.0424969 8.32,2.5871433 c 1.672,0.5446463 5.119404,1.9891266 7.660898,3.2099563 2.541493,1.2208297 6.334961,3.244573 8.429928,4.4972074 2.094967,1.252634 5.559563,3.499727 7.699104,4.99354 2.139539,1.493813 5.578835,4.074482 7.642883,5.73482 2.064048,1.660337 5.160048,4.264503 6.88,5.787035 1.719952,1.522531 5.670726,5.269225 8.779497,8.325986 l 5.652311,5.557747 2.507689,-0.491907 c 1.379229,-0.27055 3.58769,-0.638912 4.90769,-0.818582 1.32,-0.179674 4.041674,-0.472013 6.048163,-0.649642 2.006493,-0.177632 3.672864,-0.361293 3.703053,-0.408138 0.03018,-0.04684 0.461318,-0.805168 0.95807,-1.685167 0.496752,-0.88 1.840148,-2.968 2.985319,-4.64 1.145174,-1.672 3.265305,-4.48 4.711401,-6.24 1.4461,-1.76 3.908448,-4.424 5.471888,-5.92 1.563444,-1.496 4.67282,-4.016 6.909725,-5.6 2.236901,-1.584 5.254881,-3.563999 6.706611,-4.3999994 1.45173,-0.836 2.89742,-1.5199999 3.21264,-1.5199999 0.34825,0 0.57313,0.2368067 0.57313,0.6035308 0,0.405256 -0.71235,1.026727 -2.16831,1.8917015 -1.19257,0.708494 -3.46057,2.31503 -5.04,3.570079 -1.57943,1.25505 -4.195764,3.502571 -5.814074,4.994491 -1.61831,1.49192 -4.077456,4.123717 -5.464771,5.848437 -1.387315,1.724721 -3.362122,4.493381 -4.388458,6.152579 -1.026339,1.659197 -2.271168,3.873302 -2.766285,4.92023 -0.49512,1.046925 -0.8479,1.955821 -0.783958,2.019763 0.06394,0.06394 1.663235,0.319315 3.553981,0.567495 1.890745,0.248179 4.240256,0.684537 5.221129,0.969686 0.980877,0.285149 2.468749,0.865738 3.306381,1.290198 0.837635,0.424464 2.004896,1.253674 2.593914,1.842691 0.589017,0.589018 1.345533,1.633031 1.681142,2.320029 0.410709,0.84073 0.609459,1.929091 0.607919,3.329088 l -0.002,2.08 -0.726258,1.382723 c -0.399443,0.760496 -1.370902,2.0004 -2.1588,2.755338 -0.787894,0.754937 -1.93175,1.641456 -2.541904,1.970044 -0.61015,0.328589 -1.108832,0.672688 -1.108179,0.764663 6.4e-4,0.09198 0.926563,0.645715 2.057581,1.230528 1.131017,0.584809 2.787238,1.794137 3.680492,2.687388 l 1.624098,1.624096 0.48126,1.620599 0.48127,1.620595 -0.47673,1.639907 c -0.29012,0.997958 -0.99609,2.229926 -1.803475,3.147158 -0.729706,0.828989 -2.064499,1.888355 -2.966208,2.354147 l -1.639472,0.846896 -3.2,0.07777 c -1.76,0.04277 -3.488,0.0057 -3.84,-0.0824 z M 72.31904,51.698836 c -6.4e-4,-0.186361 0.51823,-1.68008 1.152797,-3.319372 0.634566,-1.639296 1.081187,-3.053111 0.992486,-3.141808 -0.0887,-0.0887 -1.867459,0.144041 -3.952797,0.517203 -2.08534,0.373162 -3.918352,0.804998 -4.073356,0.959638 -0.162231,0.161847 0.719289,1.384512 2.077232,2.88112 1.297484,1.429975 2.488809,2.831792 2.647382,3.115149 l 0.28832,0.515197 0.434448,-0.594144 c 0.238947,-0.326778 0.434016,-0.746621 0.433488,-0.932983 z M 65.264192,35.837093 c -0.976691,-0.152922 -2.594611,-0.584397 -3.595373,-0.958829 -1.000761,-0.374432 -2.676512,-1.253033 -3.723891,-1.952448 -1.047379,-0.699411 -2.633821,-2.069842 -3.525424,-3.045399 -0.891606,-0.975557 -2.109011,-2.805743 -2.705344,-4.067079 -0.596336,-1.261336 -1.262413,-3.066314 -1.48017,-4.011061 -0.246601,-1.06989 -0.332412,-2.880192 -0.227529,-4.8 0.105513,-1.931289 0.421433,-3.799246 0.846016,-5.002277 0.372691,-1.056 1.345705,-2.9022989 2.162249,-4.1028861 0.816548,-1.2005868 2.282292,-2.8326575 3.257213,-3.6268235 0.974922,-0.7941657 2.607088,-1.8651938 3.627037,-2.380062 1.019949,-0.5148683 2.755933,-1.14866913 3.857738,-1.40844634 1.101808,-0.25977719 3.134499,-0.47445064 4.517097,-0.47705211 1.382595,-0.00260147 3.398595,0.22242863 4.48,0.50006689 C 73.835213,0.7824351 75.656,1.4640106 76.8,2.019409 c 1.411456,0.6852454 2.85313,1.7829432 4.485389,3.4152029 l 2.405385,2.4053878 1.0648,2.1805853 c 0.585639,1.199322 1.293236,3.3401 1.572436,4.757284 l 0.507638,2.576697 -0.336557,2.602717 c -0.185107,1.431494 -0.645677,3.409877 -1.023488,4.396406 -0.377814,0.98653 -1.143363,2.482775 -1.701222,3.324989 -0.557859,0.842214 -1.794839,2.293376 -2.748842,3.224804 -0.954003,0.931428 -2.691024,2.194267 -3.860045,2.806309 -1.16902,0.612041 -2.917494,1.335248 -3.885494,1.607123 -0.968,0.271878 -2.768,0.562701 -4,0.646272 -1.232,0.08357 -3.039114,0.02682 -4.015808,-0.126093 z m 6.588576,-4.973735 c 1.048979,-0.273152 2.524954,-0.858575 3.279949,-1.300941 0.754992,-0.442365 1.895504,-1.262877 2.534467,-1.82336 0.638966,-0.560482 1.619885,-1.739058 2.179821,-2.619058 0.559936,-0.88 1.272278,-2.371899 1.582982,-3.315332 l 0.564919,-1.715333 -0.134122,-2.805253 -0.134118,-2.805254 -1.048055,-2.128895 C 80.102182,11.179039 78.930445,9.520919 78.074746,8.6652201 77.219046,7.8095213 75.651104,6.6757479 74.590432,6.1457236 73.52976,5.6156993 71.672467,5.0052148 70.463114,4.7890913 L 68.264288,4.3961393 66.06945,4.778354 C 64.862288,4.988572 63.111162,5.5217387 62.178054,5.9631687 61.244947,6.4045991 59.690483,7.488712 58.723686,8.3723091 57.531091,9.4622732 56.600787,10.717555 55.830458,12.276211 l -1.135418,2.297363 -0.186883,2.233213 -0.18688,2.233212 0.531216,2.072111 c 0.292166,1.13966 0.910595,2.719477 1.374285,3.510704 0.463689,0.791227 1.529705,2.096932 2.368924,2.901568 0.83922,0.804635 2.218503,1.810692 3.065076,2.235682 0.846572,0.42499 2.187222,0.949116 2.979222,1.164724 0.792,0.215608 2.309747,0.401734 3.372768,0.413613 1.063024,0.01188 2.791024,-0.20189 3.84,-0.475043 z" /></g></svg>
