<svg version="1.0" xmlns="http://www.w3.org/2000/svg" width="288pt" height="288pt" viewBox="0 0 288 288" preserveAspectRatio="xMidYMid meet"><rect width="288pt" height="288pt" fill="#fff"/><g transform="translate(16,272) scale(0.05,-0.05)" fill="#1b5e20" stroke="none"><path d="M2440 5113 c-653 -22 -1326 -341 -1779 -844 -126 -140 -128 -142 -227 -292 -143 -214 -247 -434 -327 -692 -14 -45 -67 -266 -67 -279 0 -3 25 5 56 19 31 14 58 25 59 25 7 0 104 -207 129 -275 15 -38 46 -104 71 -145 24 -41 61 -106 81 -143 20 -38 51 -79 69 -93 40 -30 172 -64 250 -63 l60 0 -101 24 c-164 38 -195 59 -264 185 -87 158 -149 343 -167 501 -11 98 34 226 133 380 52 79 114 117 268 159 109 31 458 26 543 -7 70 -28 168 -99 232 -169 28 -31 54 -55 56 -52 10 10 -86 136 -129 170 l-48 37 70 20 c60 18 98 21 288 22 196 1 212 3 155 13 -35 6 -66 17 -69 24 -4 14 92 110 154 153 147 101 280 90 530 -43 67 -36 193 -128 194 -141 0 -5 -37 -6 -82 -3 l-83 6 110 -24 c61 -14 139 -30 175 -36 183 -32 239 -50 286 -93 44 -41 127 -153 201 -272 43 -70 142 -203 169 -227 20 -18 145 -78 258 -124 151 -61 274 -211 321 -392 24 -93 21 -244 -5 -324 -49 -145 -196 -317 -260 -305 -25 5 -28 2 -44 -48 -31 -101 -133 -206 -261 -272 -43 -23 -69 -27 -180 -34 -400 -22 -510 -30 -829 -60 -162 -15 -478 -122 -585 -198 -49 -35 -232 -136 -386 -213 -82 -41 -190 -102 -240 -135 -49 -33 -110 -70 -134 -82 -63 -32 -174 -105 -190 -125 -12 -14 -11 -20 10 -42 35 -38 262 -200 314 -225 11 -5 27 -13 35 -19 104 -68 340 -174 520 -234 1099 -361 2348 99 2948 1086 366 600 475 1284 313 1949 -17 68 -40 151 -51 184 -44 125 -74 202 -106 273 -19 40 -34 74 -34 76 0 2 -25 48 -56 102 -166 295 -343 506 -622 747 -149 128 -493 327 -687 397 -375 135 -675 185 -1045 173z m2450 -2041 c0 -4 -19 -18 -42 -30 -87 -44 -187 -106 -354 -218 -170 -114 -204 -133 -168 -93 105 118 564 395 564 341z m-272 -554 c-4 -11 -108 -39 -196 -52 -52 -8 -49 7 6 25 95 32 196 46 190 27z m-148 -322 c77 -19 173 -59 178 -75 5 -15 8 -16 -158 36 -63 20 -119 40 -124 45 -15 12 41 9 104 -6z"/><path d="M1500 3463 c0 -6 13 -26 28 -45 15 -20 40 -68 56 -107 27 -69 46 -91 46 -52 0 30 -66 154 -100 186 -16 16 -30 24 -30 18z"/><path d="M3456 2673 c-66 -14 -131 -52 -141 -83 -17 -53 87 -150 161 -150 45 0 52 7 34 41 -13 23 -16 23 62 -1 78 -24 103 -48 95 -88 -7 -33 13 -47 83 -58 47 -8 85 24 138 118 99 176 58 218 -223 228 -98 3 -170 1 -209 -7z"/></g></svg>
