<svg version="1.1" width="256" height="256" viewBox="0 0 256 256"><g><path fill="#fff" style="fill:#fff;fill-opacity:1;stroke-width:0.31999999" d="m 56.888963,255.5176 c -1.535072,-0.24679 -4.199072,-0.80558 -5.92,-1.24175 -1.720931,-0.43617 -4.424963,-1.24512 -6.008963,-1.79768 -1.584,-0.55256 -4.608,-1.85116 -6.72,-2.88578 -2.112,-1.03461 -5.249488,-2.81939 -6.972196,-3.96617 -1.722707,-1.14677 -4.242707,-2.981 -5.6,-4.07606 -1.357292,-1.09507 -4.123804,-3.65938 -6.147804,-5.69848 -2.024,-2.03909 -4.723807,-5.09618 -5.999572,-6.79352 -1.275764,-1.69735 -3.024566,-4.22277 -3.8862264,-5.61205 -0.8616598,-1.38929 -2.1383165,-3.669 -2.8370144,-5.06604 C 6.0984893,216.98303 4.9885034,214.472 4.3305523,212.8 3.672601,211.128 2.7217344,208.176 2.2175152,206.24 1.713296,204.304 1.0679887,201.352 0.78349898,199.68 c -0.29314407,-1.72286 -0.5926862,-5.88224 -0.69135417,-9.6 l -0.17410009,-6.56 0.54627426,-4.32 c 0.30045081,-2.376 0.82733872,-5.544 1.17086202,-7.04 0.3435232,-1.496 1.0618255,-4.07352 1.5962273,-5.72781 0.5344019,-1.6543 1.6063091,-4.44993 2.382016,-6.2125 0.7757072,-1.76257 2.2201527,-4.56165 3.2098791,-6.22017 0.9897264,-1.65852 2.8948846,-4.4789 4.2336846,-6.26751 L 15.49117,144.48 36.100832,123.68 c 11.335315,-11.44 23.078877,-23.248 26.096806,-26.24 3.017927,-2.992 6.579271,-6.330624 7.9141,-7.419165 1.334825,-1.088541 3.823193,-2.925814 5.529708,-4.082832 1.706512,-1.157014 5.005306,-3.03055 7.330653,-4.163408 2.325344,-1.132857 5.523901,-2.509219 7.107901,-3.058579 1.584,-0.54936 4.248,-1.342198 5.92,-1.761862 1.672,-0.419664 4.696,-1.016391 6.72,-1.326055 l 3.68,-0.563027 6.72,0.0022 6.72,0.0022 3.47946,0.549722 c 1.9137,0.302348 4.88622,0.90632 6.60561,1.342163 1.71939,0.43584 4.40163,1.237638 5.96055,1.781766 1.55891,0.544131 4.56238,1.827888 6.67438,2.852797 2.112,1.024906 5.352,2.875427 7.2,4.112272 1.848,1.236842 4.188,2.908602 5.2,3.715021 1.012,0.806419 1.84,1.572697 1.84,1.702841 0,0.130144 -6.588,6.817236 -14.64,14.860206 l -14.64,14.62357 -2.88,-1.42849 c -1.584,-0.78566 -4.01903,-1.71486 -5.41119,-2.06488 l -2.53119,-0.63654 -3.70881,0.002 -3.70881,0.002 -2.63228,0.63108 c -1.44776,0.34708 -3.58563,1.06334 -4.75083,1.59166 -1.1652,0.52833 -3.004672,1.5999 -4.087716,2.38128 -1.083046,0.78138 -13.001225,12.48412 -26.484844,26.00609 C 57.84071,160.61657 46.375856,172.328 45.846874,173.12 c -0.528986,0.792 -1.422746,2.35533 -1.986138,3.47407 -0.563392,1.11874 -1.32503,3.13474 -1.692534,4.48 l -0.668189,2.44593 -0.01334,4.48 -0.01334,4.48 0.573702,2.24 c 0.315536,1.232 1.13201,3.41117 1.814384,4.8426 0.682375,1.43144 2.070909,3.64466 3.085632,4.91828 1.014727,1.27362 2.992634,3.23393 4.395351,4.35625 1.402716,1.12231 3.708518,2.60499 5.124,3.29485 1.415484,0.68986 3.474339,1.48651 4.575232,1.77034 1.100896,0.28382 3.177779,0.66352 4.615296,0.84377 l 2.61367,0.32773 2.904704,-0.35296 c 1.597587,-0.19413 4.193494,-0.78464 5.768682,-1.31225 1.575187,-0.5276 3.68368,-1.39617 4.685532,-1.93016 1.001856,-0.53398 2.610957,-1.67446 3.575776,-2.53439 1.110224,-0.98952 2.150794,-2.33044 2.834468,-3.6526 l 1.080246,-2.08909 30.557042,-0.001 30.55703,-0.001 -2.07703,2.04372 c -1.14237,1.12405 -9.28537,9.08005 -18.09556,17.68 -8.81018,8.59995 -17.37818,16.7386 -19.04,18.08589 -1.66181,1.34728 -4.44741,3.39454 -6.1902,4.54946 -1.7428,1.15491 -4.935362,2.97285 -7.094581,4.03986 -2.159223,1.06701 -5.845296,2.57162 -8.19128,3.34359 -2.345981,0.77196 -5.849421,1.72852 -7.785421,2.12568 l -3.52,0.72212 -9.28,0.088 -9.28,0.088 -2.791037,-0.44871 z M 138.4,181.39248 c -2.288,-0.11414 -5.84132,-0.50944 -7.89627,-0.87844 -2.05495,-0.36901 -5.39723,-1.17438 -7.42729,-1.78972 -2.03006,-0.61534 -5.19589,-1.77785 -7.03517,-2.58335 -1.83928,-0.80551 -4.617,-2.19088 -6.17271,-3.0786 -1.55571,-0.88773 -4.19656,-2.59685 -5.86856,-3.79806 -1.672,-1.2012 -3.472,-2.54548 -4,-2.98728 l -0.96,-0.80327 14.7343,-14.75074 14.73429,-14.75075 2.54571,1.28031 c 1.40013,0.70417 3.6257,1.58547 4.9457,1.95843 1.45461,0.41101 3.78657,0.74415 5.92,0.84575 l 3.52,0.16761 3.08161,-0.6388 c 1.80462,-0.37409 4.1915,-1.1629 5.76,-1.90355 1.47311,-0.69561 3.5765,-1.94542 4.67418,-2.77734 1.09768,-0.83193 12.81657,-12.40982 26.04196,-25.72864 L 209.04392,84.96 l 1.54016,-2.333677 c 0.84709,-1.283523 1.84805,-3.155523 2.22435,-4.16 0.3763,-1.004477 0.91773,-2.690323 1.20319,-3.746323 l 0.519,-1.92 -0.002,-4.48 -0.002,-4.48 -0.57018,-2.24 c -0.3136,-1.232 -1.27258,-3.68 -2.13107,-5.44 -0.93845,-1.923933 -2.33592,-4.118358 -3.50444,-5.502966 -1.06896,-1.266634 -2.91048,-3.03497 -4.09227,-3.929639 -1.1818,-0.894669 -3.15672,-2.108029 -4.38872,-2.696358 -1.232,-0.58833 -3.248,-1.337815 -4.48,-1.665523 l -2.24,-0.595831 -4.8,-0.0033 -4.8,-0.0033 -2.56,0.734922 c -1.408,0.404205 -3.75142,1.309277 -5.20759,2.011267 -1.80455,0.869939 -3.34651,1.935674 -4.84258,3.346992 -1.26404,1.192429 -2.5841,2.815318 -3.11241,3.826419 l -0.91742,1.755776 -30.56,-0.01434 -30.56,-0.01434 7.36,-7.230781 c 4.048,-3.976928 12.328,-12.071251 18.4,-17.987386 6.072,-5.916135 12.15341,-11.662615 13.51423,-12.769956 1.36083,-1.107341 3.85633,-2.937405 5.54556,-4.066809 1.68924,-1.129403 4.89583,-2.9806934 7.12577,-4.1139785 2.22984,-1.1332919 5.99834,-2.7156592 8.37434,-3.5163786 2.376,-0.8007194 5.76,-1.7437088 7.52,-2.0955321 1.76,-0.3518233 4.4914,-0.79822257 6.06979,-0.99199841 1.57838,-0.19377584 5.39438,-0.34966505 8.48,-0.3464205 3.17873,0.003342 7.20513,0.21790492 9.29021,0.4950645 2.024,0.26904101 5.12,0.84193651 6.88,1.27310131 1.76,0.4311648 4.29242,1.1431887 5.6276,1.5822758 1.33518,0.4390867 3.89233,1.4477654 5.68256,2.2415081 1.79022,0.7937428 4.6222,2.2478381 6.29328,3.2313236 1.67109,0.9834858 4.51394,2.8985918 6.31745,4.2557928 1.80351,1.357201 4.90752,4.043764 6.8978,5.970139 1.99028,1.926375 4.67531,4.806991 5.96673,6.40137 1.29142,1.594378 3.16775,4.12287 4.16961,5.61887 1.00187,1.496 2.79893,4.689808 3.99349,7.097347 1.19455,2.407543 2.75642,6.165799 3.47082,8.35168 0.7144,2.185882 1.58591,5.472074 1.93668,7.30265 0.35076,1.830579 0.81093,4.835097 1.02259,6.676713 0.24532,2.134416 0.3211,5.672951 0.20903,9.76 -0.0984,3.588864 -0.40453,7.748023 -0.6953,9.447149 -0.28571,1.669549 -0.88476,4.477549 -1.33122,6.24 -0.44646,1.762455 -1.32255,4.572461 -1.94686,6.244461 -0.62431,1.672 -1.85565,4.48 -2.73629,6.24 -0.88065,1.759996 -2.33831,4.351996 -3.23925,5.759996 -0.90094,1.408 -2.77845,4 -4.17224,5.76 -1.5442,1.94994 -12.41986,13.11971 -27.84032,28.59321 -15.41297,15.46599 -26.61972,26.45297 -28.66616,28.104 -1.848,1.49094 -4.63189,3.5003 -6.18642,4.46525 -1.55453,0.96495 -4.36253,2.52381 -6.24,3.46414 -1.87747,0.94032 -4.92558,2.23768 -6.77358,2.883 -1.848,0.64533 -4.81926,1.51999 -6.6028,1.9437 -1.78354,0.4237 -4.95154,0.9819 -7.04,1.24044 -2.08846,0.25854 -5.1652,0.51422 -6.8372,0.56817 -1.672,0.0539 -4.912,0.005 -7.2,-0.10943 z" /></g></svg>
