<?xml version="1.0" encoding="UTF-8" standalone="no"?><svg version="1.1" width="67" height="67" viewBox="0 0 67 67"><g><path fill="#fff" style="fill:#fff;fill-opacity:1;stroke-width:0.31999999" d="M 11.603098,66.421027 C 10.328802,66.008343 8.5818236,65.218695 7.7209229,64.666256 6.8600221,64.113818 5.4452673,62.909914 4.5770232,61.990909 3.7087794,61.071908 2.6244007,59.671997 2.167293,58.879997 1.7101854,58.087997 1.0355459,56.452829 0.66809415,55.246289 L 0,53.052583 V 26.517416 -0.01775171 l 26.479999,0.08955361 26.479999,0.08955362 1.825785,0.67164793 c 1.004183,0.36940635 2.640634,1.16110135 3.636557,1.75932215 0.995926,0.5982208 2.550323,1.8272233 3.454214,2.7311164 0.903894,0.9038931 2.132896,2.4582895 2.731117,3.4542139 0.59822,0.9959245 1.389916,2.6323751 1.759321,3.6365581 l 0.671648,1.825785 0.08956,26.479999 0.08955,26.479999 -26.648872,-0.0143 -26.648876,-0.0143 -2.316901,-0.750336 z M 53.814801,53.870401 54.399998,53.340804 V 47.173259 41.005713 L 53.89714,40.502856 53.394282,39.999998 H 33.599998 13.805714 l -0.534268,0.534269 -0.534268,0.534266 0.122041,3.865734 0.122041,3.865731 0.585902,1.12 c 0.322245,0.616 0.965461,1.528854 1.429369,2.028569 0.463908,0.499712 1.274536,1.133543 1.801397,1.408515 0.52686,0.27497 1.31886,0.609738 1.759999,0.743927 0.44114,0.134189 8.422733,0.256355 17.736875,0.271485 l 16.934802,0.02749 0.585197,-0.529597 z m 0.11375,-27.20467 0.534269,-0.534268 -0.122042,-3.865732 -0.122041,-3.865732 -0.585901,-1.12 c -0.322246,-0.616 -0.965462,-1.529188 -1.42937,-2.029306 -0.463907,-0.500119 -1.419468,-1.220119 -2.123468,-1.6 l -1.28,-0.690694 -17.403099,-0.09059 -17.403098,-0.09059 -0.596901,0.540188 -0.596901,0.540187 v 6.167547 6.167547 l 0.502858,0.502857 0.502857,0.502857 h 19.794284 19.794284 z" /></g></svg>
