<svg version="1.0" xmlns="http://www.w3.org/2000/svg" width="244pt" height="244pt" viewBox="0 0 244 244" preserveAspectRatio="xMidYMid meet"> <g transform="translate(0,240) scale(0.025,-0.025)" fill="#fff" stroke="none"><path fill="#fff" d="M4335 9434 c-443 -28 -893 -115 -1285 -248 -353 -120 -504 -185 -755 -324 -783 -435 -1393 -1095 -1819 -1967 -51 -104 -113 -237 -137 -295 -24 -58 -47 -108 -51 -111 -5 -3 -15 -34 -22 -70 -8 -35 -30 -120 -50 -188 -189 -657 -178 -1391 31 -2046 19 -60 41 -123 49 -140 7 -16 31 -80 53 -141 216 -607 558 -1100 1021 -1471 100 -80 272 -203 284 -203 3 0 -36 57 -86 127 -446 619 -657 1169 -700 1825 -26 385 37 821 177 1228 216 627 608 1209 1334 1979 806 853 1680 1392 2553 1571 270 56 373 65 733 65 363 -1 419 -5 909 -76 153 -22 280 -38 282 -36 2 2 -53 27 -123 55 -71 28 -189 77 -263 107 -403 168 -890 290 -1360 340 -138 15 -644 27 -775 19z"/><path fill="#fff" d="M5650 8864 c-194 -17 -294 -29 -420 -50 -346 -59 -912 -219 -1169 -330 -107 -47 -246 -122 -238 -130 2 -2 28 0 58 6 203 36 747 92 1094 111 554 31 914 -39 1381 -266 394 -191 707 -417 1045 -755 336 -336 559 -641 758 -1039 284 -566 454 -1187 528 -1931 24 -243 24 -823 0 -1070 -24 -245 -82 -655 -111 -780 -95 -419 -466 -1036 -916 -1525 -40 -44 -154 -165 -253 -268 -99 -103 -178 -190 -175 -192 6 -7 323 183 483 290 696 464 1192 999 1521 1640 76 147 244 539 244 569 0 6 22 80 50 164 272 832 302 1720 90 2579 -44 178 -123 426 -162 513 -14 30 -53 119 -87 197 -124 280 -320 604 -522 858 -124 157 -423 459 -574 579 -559 446 -1248 726 -1995 811 -130 15 -537 27 -630 19z"/><path fill="#fff" d="M4224 7636 c-278 -90 -477 -363 -551 -757 -24 -131 -24 -420 0 -544 48 -245 138 -423 288 -573 242 -242 546 -261 798 -52 81 67 152 164 212 285 173 356 174 862 3 1224 -104 220 -262 369 -453 425 -81 24 -210 20 -297 -8z"/><path fill="#fff" d="M6195 7174 c-196 -34 -447 -218 -586 -429 -80 -120 -186 -326 -213 -413 -78 -249 -75 -557 7 -760 100 -248 295 -391 535 -392 311 -1 654 263 856 660 105 205 146 371 146 595 0 217 -44 388 -135 525 -129 195 -327 264 -610 214z"/><path fill="#fff" d="M2705 6290 c-27 -5 -77 -18 -109 -30 -201 -69 -337 -260 -402 -562 -25 -115 -25 -370 -1 -488 56 -265 194 -525 354 -670 122 -110 252 -169 393 -177 163 -10 279 35 395 152 82 83 126 153 172 275 90 240 96 486 18 755 -138 474 -498 802 -820 745z"/><path fill="#fff" d="M7037 5295 c-315 -60 -650 -343 -812 -688 -88 -186 -121 -336 -112 -512 15 -301 171 -503 419 -545 44 -8 124 -11 202 -8 107 4 144 10 205 31 220 77 493 317 636 558 92 156 145 359 145 556 0 316 -138 533 -381 599 -83 22 -213 26 -302 9z"/><path fill="#fff" d="M4400 4700 c-401 -42 -716 -205 -1060 -550 -247 -246 -520 -611 -625 -832 -64 -137 -79 -202 -79 -343 0 -221 51 -313 247 -447 180 -122 377 -145 788 -91 278 37 560 39 725 5 270 -54 462 -153 719 -371 205 -174 305 -230 477 -265 260 -54 492 24 607 202 58 91 75 181 75 402 0 175 -3 208 -27 325 -80 376 -276 904 -444 1194 -128 221 -293 419 -442 532 -141 105 -347 190 -541 223 -121 20 -311 27 -420 16z"/><path fill="#fff" d="M0 4563 c1 -170 39 -574 76 -802 57 -356 163 -773 244 -961 15 -36 54 -128 85 -205 223 -541 506 -996 860 -1379 180 -195 490 -458 726 -615 563 -375 1438 -601 2334 -601 1077 0 2042 306 2760 874 300 238 629 571 846 856 308 404 510 865 599 1360 27 151 50 375 49 475 l0 80 -90 -270 c-72 -221 -105 -303 -178 -450 -365 -734 -993 -1272 -1795 -1537 -384 -127 -654 -167 -1173 -175 -788 -12 -1568 78 -2228 257 -1154 313 -2041 894 -2564 1679 -139 208 -249 404 -282 499 -10 30 -23 60 -28 66 -4 6 -14 29 -21 51 -7 22 -16 45 -20 50 -4 6 -39 107 -78 225 -69 212 -80 260 -103 453 -11 95 -19 124 -19 70z"/></g></svg>
