<svg version="1.1" width="304" height="304" viewBox="0 0 304 304"><g transform="translate(51,0)"><path fill="#fff" style="fill:#fff;stroke-width:0.32" d="m 0,291.2 c 0,-12.8 0,-12.8 0.96,-12.8 0.96,0 0.96,0 0.96,-10.88 0,-10.88 0,-10.88 0.8,-10.88 0.8,0 0.8,0 0.8,-5.44 0,-5.44 0,-5.44 0.96,-5.44 0.96,0 0.96,0 0.96,-4.48 0,-4.48 0,-4.48 0.96,-4.48 0.96,0 0.96,0 0.96,-3.68 0,-3.68 0,-3.68 0.8,-3.68 0.7905882,0 0.8,-0.032 0.8,-2.72 0,-2.72 0,-2.72 0.96,-2.72 0.96,0 0.96,0 0.96,-2.72 0,-2.72 0,-2.72 0.96,-2.72 0.96,0 0.96,0 0.96,-2.72 0,-2.688 0.0094,-2.72 0.8,-2.72 0.764444,0 0.8,-0.0853 0.8,-1.92 0,-1.92 0,-1.92 0.96,-1.92 0.96,0 0.96,0 0.96,-2.72 0,-2.72 0,-2.72 0.96,-2.72 0.950303,0 0.96,-0.0178 0.96,-1.76 0,-1.74222 0.0097,-1.76 0.96,-1.76 0.96,0 0.96,0 0.96,-1.92 0,-1.83467 0.03556,-1.92 0.8,-1.92 0.756364,0 0.8,-0.096 0.8,-1.76 0,-1.74222 0.0097,-1.76 0.96,-1.76 0.950303,0 0.96,-0.0178 0.96,-1.76 0,-1.74222 0.0097,-1.76 0.96,-1.76 0.853333,0 0.96,-0.10667 0.96,-0.96 0,-0.81067 0.124444,-0.96 0.8,-0.96 0.756364,0 0.8,-0.096 0.8,-1.76 0,-1.74222 0.0097,-1.76 0.96,-1.76 0.853333,0 0.96,-0.10667 0.96,-0.96 0,-0.85333 0.106667,-0.96 0.96,-0.96 0.96,0 0.96,0 0.96,-1.92 0,-1.92 0,-1.92 -0.96,-1.92 -0.950303,0 -0.96,-0.0178 -0.96,-1.76 0,-1.74222 -0.0097,-1.76 -0.96,-1.76 -0.96,0 -0.96,0 -0.96,-3.68 0,-3.68 0,-3.68 -0.8,-3.68 -0.8,0 -0.8,0 -0.8,-3.52 0,-3.52 0,-3.52 -0.96,-3.52 -0.96,0 -0.96,0 -0.96,-10.08 0,-10.08 0,-10.08 0.96,-10.08 0.96,0 0.96,0 0.96,-3.68 0,-3.68 0,-3.68 0.8,-3.68 0.790588,0 0.8,-0.032 0.8,-2.72 0,-2.72 0,-2.72 0.96,-2.72 0.96,0 0.96,0 0.96,-2.72 0,-2.72 0,-2.72 0.96,-2.72 0.96,0 0.96,0 0.96,-2.72 0,-2.688 0.0094,-2.72 0.8,-2.72 0.8,0 0.8,0 0.8,-5.44 0,-5.44 0,-5.44 0.96,-5.44 0.96,0 0.96,0 0.96,-6.4 0,-6.4 0,-6.4 0.96,-6.4 0.96,0 0.96,0 0.96,-3.68 0,-3.68 0,-3.68 0.8,-3.68 0.8,0 0.8,0 0.8,-3.52 0,-3.52 0,-3.52 0.96,-3.52 0.96,0 0.96,0 0.96,-2.72 0,-2.72 0,-2.72 0.96,-2.72 0.96,0 0.96,0 0.96,-2.88 0,-2.858666 0.0059,-2.88 0.8,-2.88 0.790589,0 0.8,-0.032 0.8,-2.72 0,-2.72 0,-2.72 0.96,-2.72 0.950304,0 0.96,-0.01779 0.96,-1.76 0,-1.742221 0.0097,-1.76 0.96,-1.76 0.950304,0 0.96,-0.01779 0.96,-1.76 0,-1.664 0.04364,-1.76 0.8,-1.76 0.764445,0 0.8,-0.08533 0.8,-1.92 0,-1.92 0,-1.92 0.96,-1.92 0.950304,0 0.96,-0.01779 0.96,-1.76 0,-1.742221 0.0097,-1.76 0.96,-1.76 0.950304,0 0.96,-0.01779 0.96,-1.76 0,-1.742221 0.0097,-1.76 0.96,-1.76 0.96,0 0.96,0 0.96,-1.92 0,-1.834666 0.03556,-1.92 0.8,-1.92 0.675555,0 0.8,-0.149334 0.8,-0.96 0,-0.853334 0.106666,-0.96 0.96,-0.96 0.950304,0 0.96,-0.01779 0.96,-1.76 0,-1.742221 0.0097,-1.76 0.96,-1.76 0.950304,0 0.96,-0.01779 0.96,-1.76 0,-1.664 0.04364,-1.76 0.8,-1.76 0.675555,0 0.8,-0.149333 0.8,-0.96 0,-0.853333 0.106666,-0.96 0.96,-0.96 0.853334,0 0.96,-0.106667 0.96,-0.96 0,-0.853333 0.106666,-0.96 0.96,-0.96 0.950304,0 0.96,-0.01778 0.96,-1.76 0,-1.664 0.04364,-1.76 0.8,-1.76 0.675555,0 0.8,-0.149333 0.8,-0.96 0,-0.853333 0.106666,-0.96 0.96,-0.96 0.810666,0 0.96,-0.124444 0.96,-0.8 0,-0.675556 0.149334,-0.8 0.96,-0.8 0.853334,0 0.96,-0.106667 0.96,-0.96 0,-0.810667 0.124445,-0.96 0.8,-0.96 0.756365,0 0.8,-0.096 0.8,-1.76 0,-1.742222 0.0097,-1.76 0.96,-1.76 0.853334,0 0.96,-0.106667 0.96,-0.96 0,-0.853333 0.106666,-0.96 0.96,-0.96 0.853334,0 0.96,-0.106667 0.96,-0.96 0,-0.810667 0.124445,-0.96 0.8,-0.96 0.675555,0 0.8,-0.149333 0.8,-0.96 0,-0.8533334 0.106666,-0.96 0.96,-0.96 0.810666,0 0.96,-0.1244445 0.96,-0.8 0,-0.6755555 0.149334,-0.8 0.96,-0.8 0.853334,0 0.96,-0.1066666 0.96,-0.96 0,-0.8106666 0.124445,-0.96 0.8,-0.96 0.675555,0 0.8,-0.1493334 0.8,-0.96 0,-0.8533334 0.106666,-0.96 0.96,-0.96 0.810666,0 0.96,-0.1244445 0.96,-0.8 0,-0.7644444 0.08533,-0.8 1.92,-0.8 1.92,0 1.92,0 1.92,-0.96 C 89.28,0 89.28,0 92,0 c 2.72,0 2.72,0 2.72,0.96 0,0.950303 0.01779,0.96 1.76,0.96 1.664,0 1.76,0.043636 1.76,0.8 0,0.6755555 0.149334,0.8 0.96,0.8 0.96,0 0.96,0 0.96,1.92 0,1.8346666 0.0356,1.92 0.8,1.92 0.8,0 0.8,0 0.8,11.84 0,11.84 0,11.84 -0.8,11.84 -0.8,0 -0.8,0 -0.8,9.92 0,9.92 0,9.92 -0.96,9.92 -0.96,0 -0.96,0 -0.96,5.44 0,5.44 0,5.44 -0.96,5.44 -0.96,0 -0.96,0 -0.96,4.64 0,4.64 0,4.64 -0.8,4.64 -0.8,0 -0.8,0 -0.8,4.48 0,4.48 0,4.48 -0.96,4.48 -0.96,0 -0.96,0 -0.96,3.68 0,3.68 0,3.68 -0.96,3.68 -0.96,0 -0.96,0 -0.96,2.72 0,2.688 -0.0094,2.72 -0.8,2.72 -0.790589,0 -0.8,0.032 -0.8,2.72 0,2.72 0,2.72 -0.96,2.72 -0.96,0 -0.96,0 -0.96,2.72 0,2.72 0,2.72 -0.96,2.72 -0.96,0 -0.96,0 -0.96,1.92 0,1.92 0,1.92 -0.96,1.92 -0.950304,0 -0.96,0.0178 -0.96,1.76 0,1.74222 0.0097,1.76 0.96,1.76 0.853334,0 0.96,-0.10667 0.96,-0.96 0,-0.85333 0.106666,-0.96 0.96,-0.96 0.810666,0 0.96,-0.12444 0.96,-0.8 0,-0.75636 0.096,-0.8 1.76,-0.8 1.742221,0 1.76,-0.01 1.76,-0.96 0,-0.85333 0.106666,-0.96 0.96,-0.96 0.950304,0 0.96,-0.0178 0.96,-1.76 0,-1.74222 0.0097,-1.76 0.96,-1.76 0.853334,0 0.96,-0.10667 0.96,-0.96 0,-0.81067 0.124445,-0.96 0.8,-0.96 0.764445,0 0.8,-0.0853 0.8,-1.92 0,-1.92 0,-1.92 0.96,-1.92 0.810666,0 0.96,-0.124445 0.96,-0.8 0,-0.675555 -0.149334,-0.8 -0.96,-0.8 -0.853334,0 -0.96,-0.106666 -0.96,-0.96 0,-0.853334 0.106666,-0.96 0.96,-0.96 0.96,0 0.96,0 0.96,-2.72 0,-2.72 0,-2.72 0.96,-2.72 0.9503,0 0.96,-0.01779 0.96,-1.76 0,-1.664 0.0436,-1.76 0.8,-1.76 0.76444,0 0.8,-0.08533 0.8,-1.92 0,-1.92 0,-1.92 0.96,-1.92 0.81067,0 0.96,-0.124445 0.96,-0.8 0,-0.675555 0.14933,-0.8 0.96,-0.8 0.85333,0 0.96,-0.106666 0.96,-0.96 0,-0.810666 0.12444,-0.96 0.8,-0.96 0.67556,0 0.8,-0.149334 0.8,-0.96 0,-0.96 0,-0.96 1.92,-0.96 1.83467,0 1.92,-0.03556 1.92,-0.8 0,-0.64 0.16,-0.8 0.8,-0.8 0.67556,0 0.8,-0.149334 0.8,-0.96 0,-0.96 0,-0.96 1.92,-0.96 1.92,0 1.92,0 1.92,-0.96 0,-0.950304 0.0178,-0.96 1.76,-0.96 1.74222,0 1.76,-0.0097 1.76,-0.96 0,-0.853334 0.10667,-0.96 0.96,-0.96 0.81067,0 0.96,-0.124445 0.96,-0.8 0,-0.756365 0.096,-0.8 1.76,-0.8 1.74222,0 1.76,-0.0097 1.76,-0.96 0,-0.853334 0.10667,-0.96 0.96,-0.96 0.85333,0 0.96,-0.106666 0.96,-0.96 0,-0.950304 0.0178,-0.96 1.76,-0.96 1.664,0 1.76,-0.04363 1.76,-0.8 0,-0.764445 0.0853,-0.8 1.92,-0.8 1.92,0 1.92,0 1.92,-0.96 0,-0.950304 0.0178,-0.96 1.76,-0.96 1.74222,0 1.76,-0.0097 1.76,-0.96 0,-0.853334 0.10667,-0.96 0.96,-0.96 0.81067,0 0.96,-0.124445 0.96,-0.8 0,-0.756365 0.096,-0.8 1.76,-0.8 1.74222,0 1.76,-0.0097 1.76,-0.96 0,-0.950304 0.0178,-0.96 1.76,-0.96 1.74222,0 1.76,-0.0097 1.76,-0.96 0,-0.96 0,-0.96 1.92,-0.96 1.83467,0 1.92,-0.03556 1.92,-0.8 0,-0.756365 0.096,-0.8 1.76,-0.8 1.74222,0 1.76,-0.0097 1.76,-0.96 0,-0.96 0,-0.96 1.92,-0.96 1.92,0 1.92,0 1.92,-0.96 0,-0.950304 0.0178,-0.96 1.76,-0.96 1.664,0 1.76,-0.04363 1.76,-0.8 0,-0.756365 0.096,-0.8 1.76,-0.8 1.74222,0 1.76,-0.0097 1.76,-0.96 0,-0.96 0,-0.96 1.92,-0.96 1.92,0 1.92,0 1.92,-0.96 0,-0.950304 0.0178,-0.96 1.76,-0.96 1.74222,0 1.76,-0.0097 1.76,-0.96 0,-0.853334 0.10667,-0.96 0.96,-0.96 0.81067,0 0.96,-0.124445 0.96,-0.8 0,-0.790589 0.032,-0.8 2.72,-0.8 2.72,0 2.72,0 2.72,-0.96 0,-0.96 0,-0.96 2.72,-0.96 2.72,0 2.72,0 2.72,-0.96 0,-0.96 0,-0.96 4.48,-0.96 4.48,0 4.48,0 4.48,0.96 0,0.853334 0.10667,0.96 0.96,0.96 0.85333,0 0.96,0.106666 0.96,0.96 0,0.853334 0.10667,0.96 0.96,0.96 0.9503,0 0.96,0.01779 0.96,1.76 0,1.664 0.0436,1.76 0.8,1.76 0.8,0 0.8,0 0.8,5.44 0,5.44 0,5.44 -0.8,5.44 -0.8,0 -0.8,0 -0.8,3.68 0,3.68 0,3.68 -0.96,3.68 -0.96,0 -0.96,0 -0.96,2.72 0,2.72 0,2.72 -0.96,2.72 -0.9503,0 -0.96,0.01779 -0.96,1.76 0,1.664 -0.0436,1.76 -0.8,1.76 -0.76444,0 -0.8,0.08533 -0.8,1.92 0,1.92 0,1.92 -0.96,1.92 -0.9503,0 -0.96,0.01779 -0.96,1.76 0,1.742221 -0.01,1.76 -0.96,1.76 -0.96,0 -0.96,0 -0.96,1.92 0,1.834666 -0.0356,1.92 -0.8,1.92 -0.64,0 -0.8,0.16 -0.8,0.8 0,0.675555 -0.14933,0.8 -0.96,0.8 -0.96,0 -0.96,0 -0.96,1.92 0,1.92 0,1.92 -0.96,1.92 -0.81067,0 -0.96,0.124445 -0.96,0.8 0,0.675555 -0.14933,0.8 -0.96,0.8 -0.96,0 -0.96,0 -0.96,1.92 0,1.834666 -0.0356,1.92 -0.8,1.92 -0.64,0 -0.8,0.16 -0.8,0.8 0,0.675555 -0.14933,0.8 -0.96,0.8 -0.85333,0 -0.96,0.106666 -0.96,0.96 0,0.853334 -0.10667,0.96 -0.96,0.96 -0.9503,0 -0.96,0.01779 -0.96,1.76 0,1.664 -0.0436,1.76 -0.8,1.76 -0.67556,0 -0.8,0.149334 -0.8,0.96 0,0.853334 -0.10667,0.96 -0.96,0.96 -0.85333,0 -0.96,0.106666 -0.96,0.96 0,0.85333 -0.10667,0.96 -0.96,0.96 -0.85333,0 -0.96,0.10667 -0.96,0.96 0,0.81067 -0.12444,0.96 -0.8,0.96 -0.64,0 -0.8,0.16 -0.8,0.8 0,0.67556 -0.14933,0.8 -0.96,0.8 -0.85333,0 -0.96,0.10667 -0.96,0.96 0,0.85333 -0.10667,0.96 -0.96,0.96 -0.85333,0 -0.96,0.10667 -0.96,0.96 0,0.81067 -0.12444,0.96 -0.8,0.96 -0.64,0 -0.8,0.16 -0.8,0.8 0,0.67556 -0.14933,0.8 -0.96,0.8 -0.85333,0 -0.96,0.10667 -0.96,0.96 0,0.9503 -0.0178,0.96 -1.76,0.96 -1.74222,0 -1.76,0.01 -1.76,0.96 0,0.85333 -0.10667,0.96 -0.96,0.96 -0.81067,0 -0.96,0.12444 -0.96,0.8 0,0.67556 -0.14933,0.8 -0.96,0.8 -0.85333,0 -0.96,0.10667 -0.96,0.96 0,0.9503 -0.0178,0.96 -1.76,0.96 -1.74222,0 -1.76,0.01 -1.76,0.96 0,0.85333 -0.10667,0.96 -0.96,0.96 -0.81067,0 -0.96,0.12444 -0.96,0.8 0,0.75636 -0.096,0.8 -1.76,0.8 -1.74222,0 -1.76,0.01 -1.76,0.96 0,0.96 0,0.96 -8.16,0.96 -8.16,0 -8.16,0 -8.16,0.96 0,0.81067 0.12444,0.96 0.8,0.96 0.67556,0 0.8,0.14933 0.8,0.96 0,0.85333 0.10667,0.96 0.96,0.96 0.9503,0 0.96,0.0178 0.96,1.76 0,1.74222 0.01,1.76 0.96,1.76 0.9503,0 0.96,0.0178 0.96,1.76 0,1.664 0.0436,1.76 0.8,1.76 0.8,0 0.8,0 0.8,4.64 0,4.64 0,4.64 -0.8,4.64 -0.8,0 -0.8,0 -0.8,4.48 0,4.48 0,4.48 -0.96,4.48 -0.96,0 -0.96,0 -0.96,2.72 0,2.72 0,2.72 -0.96,2.72 -0.96,0 -0.96,0 -0.96,2.72 0,2.688 -0.009,2.72 -0.8,2.72 -0.79059,0 -0.8,0.032 -0.8,2.72 0,2.688 0.009,2.72 0.8,2.72 0.76444,0 0.8,0.0853 0.8,1.92 0,1.92 0,1.92 0.96,1.92 0.81067,0 0.96,0.12444 0.96,0.8 0,0.67556 0.14933,0.8 0.96,0.8 0.96,0 0.96,0 0.96,2.72 0,2.72 0,2.72 -0.96,2.72 -0.96,0 -0.96,0 -0.96,1.92 0,1.92 0,1.92 -0.96,1.92 -0.85333,0 -0.96,0.10667 -0.96,0.96 0,0.81067 -0.12444,0.96 -0.8,0.96 -0.64,0 -0.8,0.16 -0.8,0.8 0,0.67556 -0.14933,0.8 -0.96,0.8 -0.85333,0 -0.96,0.10667 -0.96,0.96 0,0.85333 -0.10667,0.96 -0.96,0.96 -0.85333,0 -0.96,0.10667 -0.96,0.96 0,0.81067 -0.12444,0.96 -0.8,0.96 -0.64,0 -0.8,0.16 -0.8,0.8 0,0.67556 -0.14933,0.8 -0.96,0.8 -0.85333,0 -0.96,0.10667 -0.96,0.96 0,0.85333 -0.10667,0.96 -0.96,0.96 -0.85333,0 -0.96,0.10667 -0.96,0.96 0,0.9503 -0.0178,0.96 -1.76,0.96 -1.664,0 -1.76,0.0436 -1.76,0.8 0,0.76444 -0.0853,0.8 -1.92,0.8 -1.92,0 -1.92,0 -1.92,0.96 0,0.9503 -0.0178,0.96 -1.76,0.96 -1.74222,0 -1.76,0.01 -1.76,0.96 0,0.9503 -0.0178,0.96 -1.76,0.96 -1.664,0 -1.76,0.0436 -1.76,0.8 0,0.76444 -0.0853,0.8 -1.92,0.8 -1.92,0 -1.92,0 -1.92,0.96 0,0.96 0,0.96 -2.72,0.96 -2.72,0 -2.72,0 -2.72,0.96 0,0.96 0,0.96 -7.2,0.96 -7.2,0 -7.2,0 -7.2,-0.96 0,-0.96 0,-0.96 -2.72,-0.96 -2.72,0 -2.72,0 -2.72,-0.96 0,-0.96 0,-0.96 -2.72,-0.96 -2.72,0 -2.72,0 -2.72,0.96 0,0.9503 0.01779,0.96 1.76,0.96 1.742221,0 1.76,0.01 1.76,0.96 0,0.9503 0.01779,0.96 1.76,0.96 1.742221,0 1.76,0.01 1.76,0.96 0,0.96 0,0.96 2.72,0.96 2.688,0 2.72,0.009 2.72,0.8 0,0.67556 0.149334,0.8 0.96,0.8 0.96,0 0.96,0 0.96,7.36 0,7.36 0,7.36 0.96,7.36 0.96,0 0.96,0 0.96,5.44 0,5.44 0,5.44 0.96,5.44 0.96,0 0.96,0 0.96,3.68 0,3.68 0,3.68 0.8,3.68 0.790589,0 0.8,0.032 0.8,2.72 0,2.72 0,2.72 0.96,2.72 0.96,0 0.96,0 0.96,2.72 0,2.72 0,2.72 0.96,2.72 0.950304,0 0.96,0.0178 0.96,1.76 0,1.664 0.04363,1.76 0.8,1.76 0.790589,0 0.8,0.032 0.8,2.72 0,2.72 0,2.72 0.96,2.72 0.96,0 0.96,0 0.96,1.92 0,1.92 0,1.92 0.96,1.92 0.9503,0 0.96,0.0178 0.96,1.76 0,1.664 0.0436,1.76 0.8,1.76 0.79059,0 0.8,0.032 0.8,2.72 0,2.72 0,2.72 0.96,2.72 0.9503,0 0.96,0.0178 0.96,1.76 0,1.74222 0.01,1.76 0.96,1.76 0.96,0 0.96,0 0.96,1.92 0,1.83467 0.0356,1.92 0.8,1.92 0.75636,0 0.8,0.096 0.8,1.76 0,1.74222 0.01,1.76 0.96,1.76 0.96,0 0.96,0 0.96,2.72 0,2.72 0,2.72 0.96,2.72 0.96,0 0.96,0 0.96,1.92 0,1.83467 0.0356,1.92 0.8,1.92 0.79059,0 0.8,0.032 0.8,2.72 0,2.72 0,2.72 0.96,2.72 0.9503,0 0.96,0.0178 0.96,1.76 0,1.76 0,1.76 -36.32,1.76 -36.32,0 -36.32,0 -36.32,-15.52 0,-15.52 0,-15.52 0.8,-15.52 0.8,0 0.8,0 0.8,-9.12 0,-9.12 0,-9.12 0.96,-9.12 0.96,0 0.96,0 0.96,-4.48 0,-4.48 0,-4.48 -0.96,-4.48 -0.950304,0 -0.96,0.0178 -0.96,1.76 0,1.664 -0.04364,1.76 -0.8,1.76 -0.8,0 -0.8,0 -0.8,4.64 0,4.64 0,4.64 -0.96,4.64 -0.96,0 -0.96,0 -0.96,7.2 0,7.2 0,7.2 -0.96,7.2 -0.96,0 -0.96,0 -0.96,15.52 0,15.52 0,15.52 -19.04,15.52 C 0,304 0,304 0,291.2 Z m 71.04,-90.08 c 0,-0.67556 -0.149334,-0.8 -0.96,-0.8 -0.810666,0 -0.96,0.12444 -0.96,0.8 0,0.67556 0.149334,0.8 0.96,0.8 0.810666,0 0.96,-0.12444 0.96,-0.8 z M 107.2,184.8 c 0,-0.64 -0.16,-0.8 -0.8,-0.8 -0.67556,0 -0.8,-0.14933 -0.8,-0.96 0,-0.96 0,-0.96 -1.92,-0.96 -1.92,0 -1.92,0 -1.92,-0.96 0,-0.81067 -0.12444,-0.96 -0.8,-0.96 -0.67556,0 -0.8,-0.14933 -0.8,-0.96 0,-0.85333 -0.10667,-0.96 -0.96,-0.96 -0.853334,0 -0.96,0.10667 -0.96,0.96 0,0.9503 -0.01779,0.96 -1.76,0.96 -1.742221,0 -1.76,0.01 -1.76,0.96 0,0.96 0,0.96 -10.08,0.96 -10.08,0 -10.08,0 -10.08,-0.96 0,-0.9503 -0.01779,-0.96 -1.76,-0.96 -1.742221,0 -1.76,0.01 -1.76,0.96 0,0.81067 0.124445,0.96 0.8,0.96 0.675555,0 0.8,0.14933 0.8,0.96 0,0.96 0,0.96 11.84,0.96 11.84,0 11.84,0 11.84,-0.96 0,-0.96 0,-0.96 2.72,-0.96 2.72,0 2.72,0 2.72,0.96 0,0.85333 0.10667,0.96 0.96,0.96 0.81067,0 0.96,0.12444 0.96,0.8 0,0.75636 0.096,0.8 1.76,0.8 1.664,0 1.76,-0.0436 1.76,-0.8 z m -1.6,-18.24 c 0,-0.75636 0.096,-0.8 1.76,-0.8 1.74222,0 1.76,-0.01 1.76,-0.96 0,-0.9503 0.0178,-0.96 1.76,-0.96 1.74222,0 1.76,-0.01 1.76,-0.96 0,-0.81067 -0.12444,-0.96 -0.8,-0.96 -0.64,0 -0.8,-0.16 -0.8,-0.8 0,-0.8 0,-0.8 -5.44,-0.8 -5.44,0 -5.44,0 -5.44,-0.96 0,-0.96 0,-0.96 -2.72,-0.96 -2.72,0 -2.72,0 -2.72,0.96 0,0.81067 0.124445,0.96 0.8,0.96 0.64,0 0.8,0.16 0.8,0.8 0,0.76444 0.08533,0.8 1.92,0.8 1.92,0 1.92,0 1.92,0.96 0,0.81067 0.12444,0.96 0.8,0.96 0.67556,0 0.8,0.14933 0.8,0.96 0,0.85333 0.10667,0.96 0.96,0.96 0.81067,0 0.96,0.12444 0.96,0.8 0,0.67556 0.14933,0.8 0.96,0.8 0.81067,0 0.96,-0.12444 0.96,-0.8 z m 14.4,-4.48 c 0,-1.74222 0.01,-1.76 0.96,-1.76 0.96,0 0.96,0 0.96,-1.92 0,-1.92 0,-1.92 1.76,-1.92 1.76,0 1.76,0 1.76,1.92 0,1.92 0,1.92 1.92,1.92 1.92,0 1.92,0 1.92,-0.96 0,-0.85333 -0.10667,-0.96 -0.96,-0.96 -0.9503,0 -0.96,-0.0178 -0.96,-1.76 0,-1.74222 -0.01,-1.76 -0.96,-1.76 -0.85333,0 -0.96,-0.10667 -0.96,-0.96 0,-0.9503 -0.0178,-0.96 -1.76,-0.96 -1.74222,0 -1.76,0.01 -1.76,0.96 0,0.85333 -0.10667,0.96 -0.96,0.96 -0.81067,0 -0.96,0.12444 -0.96,0.8 0,0.64 -0.16,0.8 -0.8,0.8 -0.76444,0 -0.8,0.0853 -0.8,1.92 0,1.92 0,1.92 -0.96,1.92 -0.9503,0 -0.96,0.0178 -0.96,1.76 0,1.76 0,1.76 1.76,1.76 1.76,0 1.76,0 1.76,-1.76 z m -40,-9.12 c 0,-5.44 0,-5.44 -0.96,-5.44 -0.96,0 -0.96,0 -0.96,-1.92 0,-1.83467 -0.03556,-1.92 -0.8,-1.92 -0.64,0 -0.8,-0.16 -0.8,-0.8 0,-0.67556 -0.149334,-0.8 -0.96,-0.8 -0.853334,0 -0.96,-0.10667 -0.96,-0.96 0,-0.9503 -0.01779,-0.96 -1.76,-0.96 -1.742221,0 -1.76,-0.01 -1.76,-0.96 0,-0.96 0,-0.96 -6.4,-0.96 -6.4,0 -6.4,0 -6.4,0.96 0,0.85333 -0.106666,0.96 -0.96,0.96 -0.853334,0 -0.96,0.10667 -0.96,0.96 0,0.81067 -0.124445,0.96 -0.8,0.96 -0.64,0 -0.8,0.16 -0.8,0.8 0,0.67556 -0.149334,0.8 -0.96,0.8 -0.96,0 -0.96,0 -0.96,1.92 0,1.92 0,1.92 -0.96,1.92 -0.96,0 -0.96,0 -0.96,2.72 0,2.72 0,2.72 1.92,2.72 1.92,0 1.92,0 1.92,-2.72 0,-2.688 0.0094,-2.72 0.8,-2.72 0.675555,0 0.8,-0.14933 0.8,-0.96 0,-0.85333 0.106666,-0.96 0.96,-0.96 0.853334,0 0.96,-0.10667 0.96,-0.96 0,-0.85333 0.106666,-0.96 0.96,-0.96 0.810666,0 0.96,-0.12444 0.96,-0.8 0,-0.8 0,-0.8 4.48,-0.8 4.48,0 4.48,0 4.48,0.8 0,0.75636 0.096,0.8 1.76,0.8 1.742221,0 1.76,0.01 1.76,0.96 0,0.85333 0.106666,0.96 0.96,0.96 0.950304,0 0.96,0.0178 0.96,1.76 0,1.74222 0.0097,1.76 0.96,1.76 0.96,0 0.96,0 0.96,4.64 0,4.64 0,4.64 1.76,4.64 1.76,0 1.76,0 1.76,-5.44 z m 49.28,-32 c 0,-0.85333 -0.10667,-0.96 -0.96,-0.96 -0.81067,0 -0.96,-0.12444 -0.96,-0.8 0,-0.67556 -0.14933,-0.8 -0.96,-0.8 -0.81067,0 -0.96,0.12444 -0.96,0.8 0,0.67556 0.14933,0.8 0.96,0.8 0.85333,0 0.96,0.10667 0.96,0.96 0,0.85333 0.10667,0.96 0.96,0.96 0.85333,0 0.96,-0.10667 0.96,-0.96 z M 107.2,101.12 c 0,-0.9503 -0.0178,-0.96 -1.76,-0.96 -1.74222,0 -1.76,-0.01 -1.76,-0.96 0,-0.853334 -0.10667,-0.96 -0.96,-0.96 -0.85333,0 -0.96,-0.106666 -0.96,-0.96 0,-0.950304 -0.0178,-0.96 -1.76,-0.96 -1.742221,0 -1.76,0.0097 -1.76,0.96 0,0.853334 0.106666,0.96 0.96,0.96 0.85333,0 0.96,0.106666 0.96,0.96 0,0.9503 0.0178,0.96 1.76,0.96 1.74222,0 1.76,0.01 1.76,0.96 0,0.9503 0.0178,0.96 1.76,0.96 1.74222,0 1.76,-0.01 1.76,-0.96 z m 14.72,201.12 c 0,-1.74222 -0.01,-1.76 -0.96,-1.76 -0.96,0 -0.96,0 -0.96,-2.72 0,-2.688 -0.009,-2.72 -0.8,-2.72 -0.76444,0 -0.8,-0.0853 -0.8,-1.92 0,-1.92 0,-1.92 -0.96,-1.92 -0.96,0 -0.96,0 -0.96,-2.72 0,-2.72 0,-2.72 -0.96,-2.72 -0.9503,0 -0.96,-0.0178 -0.96,-1.76 0,-1.74222 -0.01,-1.76 -0.96,-1.76 -0.96,0 -0.96,0 -0.96,-1.92 0,-1.83467 -0.0356,-1.92 -0.8,-1.92 -0.79059,0 -0.8,-0.032 -0.8,-2.72 0,-2.72 0,-2.72 -0.96,-2.72 -0.9503,0 -0.96,-0.0178 -0.96,-1.76 0,-1.74222 -0.01,-1.76 -0.96,-1.76 -0.9503,0 -0.96,-0.0178 -0.96,-1.76 0,-1.664 -0.0436,-1.76 -0.8,-1.76 -0.76444,0 -0.8,-0.0853 -0.8,-1.92 0,-1.92 0,-1.92 -0.96,-1.92 -0.9503,0 -0.96,-0.0178 -0.96,-1.76 0,-1.74222 -0.01,-1.76 -0.96,-1.76 -0.96,0 -0.96,0 -0.96,-2.72 0,-2.688 -0.009,-2.72 -0.8,-2.72 -0.79059,0 -0.8,-0.032 -0.8,-2.72 0,-2.72 0,-2.72 -0.96,-2.72 -0.96,0 -0.96,0 -0.96,-1.92 0,-1.92 0,-1.92 -0.96,-1.92 -0.96,0 -0.96,0 -0.96,-3.52 0,-3.52 0,-3.52 -0.8,-3.52 -0.794074,0 -0.8,-0.0213 -0.8,-2.88 0,-2.85867 0.0059,-2.88 0.8,-2.88 0.764445,0 0.8,0.0853 0.8,1.92 0,1.92 0,1.92 0.96,1.92 0.950304,0 0.96,0.0178 0.96,1.76 0,1.74222 0.0097,1.76 0.96,1.76 0.85333,0 0.96,0.10667 0.96,0.96 0,0.81067 0.12444,0.96 0.8,0.96 0.75636,0 0.8,0.096 0.8,1.76 0,1.74222 0.01,1.76 0.96,1.76 0.85333,0 0.96,0.10667 0.96,0.96 0,0.85333 0.10667,0.96 0.96,0.96 0.85333,0 0.96,0.10667 0.96,0.96 0,0.81067 0.12444,0.96 0.8,0.96 0.75636,0 0.8,0.096 0.8,1.76 0,1.74222 0.01,1.76 0.96,1.76 0.85333,0 0.96,0.10667 0.96,0.96 0,0.85333 0.10667,0.96 0.96,0.96 0.81067,0 0.96,0.12444 0.96,0.8 0,0.64 0.16,0.8 0.8,0.8 0.67556,0 0.8,0.14933 0.8,0.96 0,0.85333 0.10667,0.96 0.96,0.96 0.85333,0 0.96,0.10667 0.96,0.96 0,0.85333 0.10667,0.96 0.96,0.96 0.9503,0 0.96,0.0178 0.96,1.76 0,1.74222 0.01,1.76 0.96,1.76 0.85333,0 0.96,0.10667 0.96,0.96 0,0.81067 0.12444,0.96 0.8,0.96 0.67556,0 0.8,0.14933 0.8,0.96 0,0.85333 0.10667,0.96 0.96,0.96 0.81067,0 0.96,0.12444 0.96,0.8 0,0.67556 0.14933,0.8 0.96,0.8 0.96,0 0.96,0 0.96,1.92 0,1.83467 0.0356,1.92 0.8,1.92 0.64,0 0.8,0.16 0.8,0.8 0,0.67556 0.14933,0.8 0.96,0.8 0.85333,0 0.96,0.10667 0.96,0.96 0,0.85333 0.10667,0.96 0.96,0.96 0.9503,0 0.96,0.0178 0.96,1.76 0,1.664 0.0436,1.76 0.8,1.76 0.79059,0 0.8,0.032 0.8,2.72 0,2.72 0,2.72 0.96,2.72 0.96,0 0.96,0 0.96,7.36 0,7.36 0,7.36 -0.96,7.36 -0.9503,0 -0.96,0.0178 -0.96,1.76 0,1.664 -0.0436,1.76 -0.8,1.76 -0.67556,0 -0.8,0.14933 -0.8,0.96 0,0.96 0,0.96 -3.68,0.96 -3.68,0 -3.68,0 -3.68,-1.76 z m 12.8,-30.08 c 0,-0.67556 -0.14933,-0.8 -0.96,-0.8 -0.85333,0 -0.96,-0.10667 -0.96,-0.96 0,-0.85333 -0.10667,-0.96 -0.96,-0.96 -0.9503,0 -0.96,-0.0178 -0.96,-1.76 0,-1.664 -0.0436,-1.76 -0.8,-1.76 -0.67556,0 -0.8,-0.14933 -0.8,-0.96 0,-0.81067 0.12444,-0.96 0.8,-0.96 0.67556,0 0.8,-0.14933 0.8,-0.96 0,-0.85333 0.10667,-0.96 0.96,-0.96 0.85333,0 0.96,-0.10667 0.96,-0.96 0,-0.85333 0.10667,-0.96 0.96,-0.96 0.81067,0 0.96,-0.12444 0.96,-0.8 0,-0.64 0.16,-0.8 0.8,-0.8 0.67556,0 0.8,-0.14933 0.8,-0.96 0,-0.85333 0.10667,-0.96 0.96,-0.96 0.85333,0 0.96,-0.10667 0.96,-0.96 0,-0.85333 0.10667,-0.96 0.96,-0.96 0.81067,0 0.96,-0.12444 0.96,-0.8 0,-0.64 0.16,-0.8 0.8,-0.8 0.67556,0 0.8,-0.14933 0.8,-0.96 0,-0.85333 0.10667,-0.96 0.96,-0.96 0.85333,0 0.96,-0.10667 0.96,-0.96 0,-0.85333 0.10667,-0.96 0.96,-0.96 0.81067,0 0.96,-0.12444 0.96,-0.8 0,-0.64 0.16,-0.8 0.8,-0.8 0.67556,0 0.8,-0.14933 0.8,-0.96 0,-0.85333 0.10667,-0.96 0.96,-0.96 0.9503,0 0.96,-0.0178 0.96,-1.76 0,-1.74222 0.01,-1.76 0.96,-1.76 0.85333,0 0.96,-0.10667 0.96,-0.96 0,-0.85333 0.10667,-0.96 0.96,-0.96 0.85333,0 0.96,-0.10667 0.96,-0.96 0,-0.81067 0.12444,-0.96 0.8,-0.96 0.64,0 0.8,-0.16 0.8,-0.8 0,-0.67556 0.14933,-0.8 0.96,-0.8 0.85333,0 0.96,-0.10667 0.96,-0.96 0,-0.85333 0.10667,-0.96 0.96,-0.96 0.85333,0 0.96,-0.10667 0.96,-0.96 0,-0.9503 0.0178,-0.96 1.76,-0.96 1.76,0 1.76,0 1.76,-1.76 0,-1.74222 -0.01,-1.76 -0.96,-1.76 -0.96,0 -0.96,0 -0.96,-6.4 0,-6.4 0,-6.4 0.96,-6.4 0.9503,0 0.96,-0.0178 0.96,-1.76 0,-1.74222 0.01,-1.76 0.96,-1.76 0.96,0 0.96,0 0.96,-1.92 0,-1.92 0,-1.92 2.72,-1.92 2.688,0 2.72,-0.009 2.72,-0.8 0,-0.64 0.16,-0.8 0.8,-0.8 0.67556,0 0.8,-0.14933 0.8,-0.96 0,-0.96 0,-0.96 1.92,-0.96 1.92,0 1.92,0 1.92,-0.96 0,-0.96 0,-0.96 3.52,-0.96 3.52,0 3.52,0 3.52,0.96 0,0.96 0,0.96 1.92,0.96 1.92,0 1.92,0 1.92,-0.96 0,-0.9503 0.0178,-0.96 1.76,-0.96 1.74222,0 1.76,-0.01 1.76,-0.96 0,-0.96 0,-0.96 1.92,-0.96 1.83467,0 1.92,-0.0356 1.92,-0.8 0,-0.64 0.16,-0.8 0.8,-0.8 0.76444,0 0.8,-0.0853 0.8,-1.92 0,-1.92 0,-1.92 0.96,-1.92 0.9503,0 0.96,-0.0178 0.96,-1.76 0,-1.76 0,-1.76 1.76,-1.76 1.76,0 1.76,0 1.76,3.68 0,3.68 0,3.68 0.96,3.68 0.96,0 0.96,0 0.96,6.4 0,6.4 0,6.4 -0.96,6.4 -0.9503,0 -0.96,0.0178 -0.96,1.76 0,1.74222 0.01,1.76 0.96,1.76 0.96,0 0.96,0 0.96,10.08 0,10.08 0,10.08 -0.96,10.08 -0.9503,0 -0.96,0.0178 -0.96,1.76 0,1.74222 0.01,1.76 0.96,1.76 0.96,0 0.96,0 0.96,2.72 0,2.72 0,2.72 -0.96,2.72 -0.85333,0 -0.96,0.10667 -0.96,0.96 0,0.9503 -0.0178,0.96 -1.76,0.96 -1.74222,0 -1.76,-0.01 -1.76,-0.96 0,-0.85333 -0.10667,-0.96 -0.96,-0.96 -0.9503,0 -0.96,-0.0178 -0.96,-1.76 0,-1.74222 0.01,-1.76 0.96,-1.76 0.96,0 0.96,0 0.96,-3.68 0,-3.68 0,-3.68 0.96,-3.68 0.96,0 0.96,0 0.96,-5.44 0,-5.44 0,-5.44 0.8,-5.44 0.8,0 0.8,0 0.8,-3.68 0,-3.68 0,-3.68 -0.8,-3.68 -0.67556,0 -0.8,0.14933 -0.8,0.96 0,0.85333 -0.10667,0.96 -0.96,0.96 -0.9503,0 -0.96,0.0178 -0.96,1.76 0,1.74222 -0.01,1.76 -0.96,1.76 -0.85333,0 -0.96,0.10667 -0.96,0.96 0,0.81067 -0.12444,0.96 -0.8,0.96 -0.64,0 -0.8,0.16 -0.8,0.8 0,0.67556 -0.14933,0.8 -0.96,0.8 -0.85333,0 -0.96,0.10667 -0.96,0.96 0,0.85333 -0.10667,0.96 -0.96,0.96 -0.85333,0 -0.96,0.10667 -0.96,0.96 0,0.81067 -0.12444,0.96 -0.8,0.96 -0.64,0 -0.8,0.16 -0.8,0.8 0,0.76444 -0.0853,0.8 -1.92,0.8 -1.92,0 -1.92,0 -1.92,0.96 0,0.9503 -0.0178,0.96 -1.76,0.96 -1.74222,0 -1.76,0.01 -1.76,0.96 0,0.96 0,0.96 -1.92,0.96 -1.92,0 -1.92,0 -1.92,1.76 0,1.76 0,1.76 -3.52,1.76 -3.52,0 -3.52,0 -3.52,-0.8 0,-0.76444 -0.0853,-0.8 -1.92,-0.8 -1.92,0 -1.92,0 -1.92,-0.96 0,-0.81067 -0.12444,-0.96 -0.8,-0.96 -0.67556,0 -0.8,-0.14933 -0.8,-0.96 0,-0.85333 -0.10667,-0.96 -0.96,-0.96 -0.96,0 -0.96,0 -0.96,2.72 0,2.72 0,2.72 -0.96,2.72 -0.85333,0 -0.96,0.10667 -0.96,0.96 0,0.81067 -0.12444,0.96 -0.8,0.96 -0.75636,0 -0.8,0.096 -0.8,1.76 0,1.74222 -0.01,1.76 -0.96,1.76 -0.85333,0 -0.96,0.10667 -0.96,0.96 0,0.85333 -0.10667,0.96 -0.96,0.96 -0.9503,0 -0.96,0.0178 -0.96,1.76 0,1.664 -0.0436,1.76 -0.8,1.76 -0.67556,0 -0.8,0.14933 -0.8,0.96 0,0.85333 -0.10667,0.96 -0.96,0.96 -0.85333,0 -0.96,0.10667 -0.96,0.96 0,0.85333 -0.10667,0.96 -0.96,0.96 -0.81067,0 -0.96,0.12444 -0.96,0.8 0,0.67556 -0.14933,0.8 -0.96,0.8 -0.96,0 -0.96,0 -0.96,1.92 0,1.83467 -0.0356,1.92 -0.8,1.92 -0.64,0 -0.8,0.16 -0.8,0.8 0,0.67556 -0.14933,0.8 -0.96,0.8 -0.85333,0 -0.96,0.10667 -0.96,0.96 0,0.85333 -0.10667,0.96 -0.96,0.96 -0.96,0 -0.96,0 -0.96,1.92 0,1.83467 -0.0356,1.92 -0.8,1.92 -0.64,0 -0.8,0.16 -0.8,0.8 0,0.67556 -0.14933,0.8 -0.96,0.8 -0.85333,0 -0.96,0.10667 -0.96,0.96 0,0.85333 -0.10667,0.96 -0.96,0.96 -0.9503,0 -0.96,0.0178 -0.96,1.76 0,1.664 -0.0436,1.76 -0.8,1.76 -0.64,0 -0.8,-0.16 -0.8,-0.8 z" /></g></svg>
