<svg version="1.0" xmlns="http://www.w3.org/2000/svg" width="1024pt" height="1024pt" viewBox="0 0 1024 1024" preserveAspectRatio="xMidYMid meet"><g transform="translate(0,1024) scale(0.1,-0.1)" fill="#fff" stroke="none"><path d="M5148 10235 c-2 -1 -68 -6 -148 -10 -327 -17 -474 -29 -565 -46 -27 -5 -75 -12 -105 -15 -30 -3 -95 -14 -144 -25 -48 -11 -91 -18 -93 -15 -3 3 -18 -1 -34 -10 -16 -8 -31 -14 -34 -14 -11 2 -84 -14 -155 -32 -41 -11 -90 -22 -109 -24 -18 -3 -45 -11 -60 -18 -14 -7 -64 -23 -111 -36 -47 -13 -89 -27 -94 -32 -6 -4 -22 -8 -36 -8 -14 0 -30 -4 -36 -9 -8 -8 -56 -27 -247 -98 -38 -14 -87 -36 -110 -49 -23 -13 -50 -24 -60 -24 -10 0 -20 -6 -23 -14 -3 -8 -20 -18 -37 -21 -18 -4 -46 -16 -63 -26 -17 -10 -36 -19 -42 -19 -6 0 -70 -35 -144 -77 -73 -42 -146 -83 -163 -91 -16 -9 -32 -18 -35 -22 -3 -3 -22 -14 -43 -24 -22 -10 -47 -25 -56 -34 -10 -10 -26 -22 -37 -28 -10 -6 -30 -17 -44 -25 -13 -8 -30 -20 -38 -26 -7 -7 -17 -13 -22 -13 -5 0 -15 -6 -22 -13 -7 -7 -30 -23 -51 -36 -21 -13 -43 -28 -50 -34 -6 -7 -30 -24 -52 -39 -37 -26 -52 -37 -130 -103 -16 -14 -58 -48 -92 -75 -34 -26 -73 -59 -87 -72 -14 -12 -37 -32 -52 -43 -42 -30 -361 -352 -368 -370 -3 -9 -10 -13 -16 -10 -5 3 -10 1 -10 -6 0 -6 -12 -24 -27 -39 -36 -35 -101 -109 -133 -151 -14 -18 -34 -43 -45 -55 -11 -12 -27 -32 -35 -45 -8 -12 -23 -29 -33 -38 -9 -8 -17 -20 -17 -26 0 -5 -16 -27 -35 -49 -20 -21 -38 -49 -41 -62 -3 -13 -9 -24 -13 -24 -4 0 -23 -24 -41 -52 -19 -29 -42 -62 -52 -72 -10 -11 -18 -23 -18 -27 0 -4 -6 -14 -13 -21 -7 -7 -21 -30 -30 -50 -10 -21 -22 -38 -27 -38 -6 0 -10 -6 -10 -13 0 -7 -18 -41 -40 -75 -22 -33 -40 -67 -40 -75 0 -7 -13 -31 -29 -53 -16 -21 -32 -50 -36 -64 -4 -14 -23 -48 -41 -76 -19 -28 -34 -54 -34 -57 0 -3 -24 -59 -54 -124 -29 -65 -63 -140 -75 -168 -12 -27 -25 -57 -30 -65 -5 -9 -12 -31 -16 -50 -4 -19 -23 -68 -41 -108 -19 -41 -31 -78 -29 -83 3 -4 -4 -27 -15 -49 -12 -23 -23 -54 -25 -70 -2 -15 -9 -38 -15 -50 -11 -20 -35 -100 -44 -145 -3 -11 -14 -56 -26 -100 -12 -44 -23 -89 -24 -100 -1 -11 -8 -33 -14 -48 -7 -15 -14 -47 -17 -70 -2 -23 -9 -60 -15 -82 -16 -64 -14 -68 20 -50 16 8 40 15 54 15 14 0 28 4 31 10 6 9 105 60 117 60 3 0 11 -15 18 -32 15 -40 99 -209 110 -223 10 -13 90 -209 90 -221 0 -6 9 -29 20 -52 11 -22 20 -48 20 -56 0 -8 4 -17 9 -21 5 -3 12 -18 16 -34 3 -15 31 -70 62 -122 30 -52 71 -124 90 -161 19 -38 38 -68 42 -68 5 0 26 -35 47 -78 86 -172 153 -256 229 -288 70 -29 79 -32 160 -52 44 -11 100 -26 125 -33 49 -14 185 -16 246 -4 l39 8 -50 9 c-27 4 -81 13 -120 18 -38 6 -88 17 -110 24 -22 7 -62 19 -90 25 -167 39 -285 145 -387 346 -20 39 -46 90 -60 115 -13 25 -32 63 -42 85 -9 22 -23 51 -31 65 -8 14 -15 36 -15 49 0 14 -6 32 -14 40 -16 17 -98 253 -94 268 4 13 -31 181 -53 254 -26 91 -26 234 1 312 11 31 20 69 20 84 0 41 34 141 67 197 15 26 42 74 59 105 43 79 58 105 65 111 13 11 89 128 89 137 0 57 295 208 446 228 12 2 35 10 51 19 58 29 470 51 688 35 276 -20 354 -28 371 -38 11 -5 57 -29 104 -52 47 -23 96 -50 110 -61 14 -10 48 -35 76 -56 88 -63 284 -259 284 -283 0 -5 5 -9 10 -9 16 0 10 22 -18 66 -107 164 -113 173 -137 197 -35 35 -166 137 -176 137 -18 0 -9 18 14 25 222 73 234 74 622 76 193 1 384 5 425 8 l75 6 -50 8 c-27 4 -80 10 -117 12 -67 4 -108 17 -108 34 0 18 89 118 170 191 112 101 196 157 314 211 l99 44 121 0 c119 0 203 -13 331 -52 61 -19 259 -113 309 -147 20 -13 58 -32 84 -42 26 -9 66 -31 89 -48 23 -17 67 -49 98 -71 75 -54 147 -114 163 -137 12 -17 9 -18 -50 -18 -35 0 -112 7 -173 15 -112 15 -182 19 -173 10 2 -3 22 -7 44 -9 42 -5 171 -34 268 -59 33 -9 62 -14 66 -12 4 2 31 -2 61 -10 30 -7 86 -16 124 -20 39 -4 106 -15 150 -25 44 -10 103 -23 130 -30 28 -6 73 -15 100 -20 82 -13 178 -50 210 -79 17 -15 44 -38 62 -50 42 -29 146 -157 198 -245 23 -39 71 -108 106 -154 35 -46 78 -109 95 -140 65 -121 229 -348 308 -427 43 -43 191 -129 306 -178 36 -15 73 -32 82 -38 10 -5 24 -9 33 -9 16 0 60 -19 202 -87 76 -36 108 -59 176 -126 47 -45 111 -107 143 -137 33 -30 66 -64 74 -75 14 -18 94 -191 95 -205 1 -3 6 -14 12 -26 16 -28 47 -122 73 -219 30 -114 31 -412 1 -538 -43 -179 -227 -494 -329 -563 -18 -12 -53 -40 -78 -61 -65 -55 -144 -79 -171 -52 -10 10 -43 -54 -43 -86 0 -74 -175 -325 -272 -391 -24 -16 -54 -39 -68 -52 -55 -49 -241 -152 -276 -152 -8 0 -25 -6 -37 -12 -14 -9 -95 -15 -232 -20 -115 -4 -259 -12 -320 -17 -211 -19 -431 -32 -551 -31 -66 0 -153 -4 -192 -10 -40 -5 -116 -13 -169 -16 -53 -3 -113 -12 -133 -19 -19 -8 -84 -16 -145 -18 -293 -13 -483 -48 -640 -118 -62 -27 -161 -59 -184 -59 -14 0 -39 -7 -55 -15 -15 -8 -38 -17 -51 -19 -12 -2 -31 -9 -41 -15 -11 -6 -50 -24 -89 -41 -38 -17 -78 -35 -87 -40 -10 -6 -22 -10 -27 -10 -5 0 -32 -16 -61 -35 -29 -19 -58 -35 -66 -35 -8 0 -14 -4 -14 -9 0 -5 -25 -24 -56 -43 -30 -18 -72 -43 -92 -55 -20 -13 -50 -29 -67 -37 -16 -8 -60 -32 -97 -55 -74 -45 -376 -201 -389 -201 -4 0 -35 -16 -68 -35 -32 -19 -64 -35 -69 -35 -13 0 -279 -150 -332 -187 -25 -17 -74 -48 -110 -69 -36 -20 -81 -50 -100 -65 -20 -15 -69 -45 -110 -66 -77 -41 -137 -76 -155 -90 -11 -9 -61 -40 -147 -89 -59 -34 -124 -88 -139 -116 -10 -19 -6 -24 61 -78 69 -55 91 -74 111 -93 10 -9 23 -17 27 -17 5 0 17 -9 27 -20 10 -11 24 -20 30 -20 7 0 15 -7 19 -15 3 -8 12 -15 20 -15 9 0 20 -9 26 -20 6 -11 17 -20 25 -20 8 0 15 -4 15 -9 0 -5 14 -14 30 -21 17 -7 30 -17 30 -22 0 -5 8 -12 18 -16 17 -7 101 -60 179 -113 23 -16 48 -29 56 -29 9 0 23 -8 33 -17 22 -23 91 -63 177 -104 37 -17 67 -35 67 -38 0 -4 26 -18 58 -33 31 -14 92 -42 135 -62 43 -20 80 -36 83 -36 2 0 39 -16 82 -35 42 -20 91 -42 107 -49 17 -7 51 -23 76 -35 25 -11 55 -21 65 -21 10 0 41 -11 68 -25 27 -14 57 -25 66 -25 10 0 39 -8 66 -19 53 -20 123 -42 194 -60 25 -7 59 -17 75 -22 17 -6 39 -12 50 -14 11 -2 40 -9 65 -15 25 -6 54 -12 65 -15 11 -2 40 -9 64 -15 24 -6 46 -8 49 -6 2 3 16 -1 31 -8 25 -13 63 -21 146 -31 22 -2 51 -7 65 -10 31 -7 79 -13 150 -20 30 -3 82 -8 115 -11 33 -3 85 -7 115 -8 30 -2 55 -4 55 -5 0 -13 462 -18 620 -7 133 9 208 17 225 21 8 3 49 7 90 10 41 3 93 10 115 15 22 6 60 13 85 15 65 7 92 11 120 19 26 6 71 15 105 20 33 5 88 17 120 26 17 5 73 19 125 31 52 12 100 25 105 29 6 5 28 11 50 15 22 4 48 12 58 17 10 5 26 11 35 13 49 9 102 27 107 35 3 6 17 10 30 10 14 0 39 9 57 20 18 11 46 20 62 20 16 0 44 9 62 21 19 11 34 18 34 15 0 -5 114 42 165 68 17 9 35 16 41 16 6 0 17 7 24 15 7 8 18 15 26 15 7 0 41 13 76 29 35 15 70 31 78 34 8 4 33 18 55 31 22 14 69 40 105 58 36 18 67 36 70 39 3 4 15 9 28 13 12 4 22 12 22 17 0 5 7 9 16 9 16 0 140 78 167 105 9 8 23 15 31 15 9 0 16 4 16 9 0 5 12 16 28 23 43 22 75 42 89 55 8 7 27 20 43 30 17 9 30 21 30 25 0 4 5 8 11 8 5 0 53 35 106 78 53 42 122 96 152 119 31 23 81 65 111 92 30 27 74 67 98 88 50 43 142 132 142 137 0 1 57 61 126 132 69 71 142 149 163 174 51 63 53 65 86 106 17 20 38 45 48 55 9 10 17 23 17 27 0 5 9 17 20 27 11 10 20 24 20 32 0 7 7 16 15 19 8 4 15 12 15 20 0 7 9 18 20 24 11 6 20 17 20 25 0 8 4 15 9 15 5 0 14 14 21 30 7 17 17 30 22 30 5 0 14 13 19 30 6 17 14 30 19 30 4 0 13 14 20 30 7 17 15 30 19 30 4 0 19 25 35 55 15 30 32 55 37 55 5 0 9 9 9 19 0 11 11 33 25 49 14 17 32 46 40 66 9 20 19 36 23 36 5 0 21 31 38 70 16 38 32 70 37 70 7 0 47 81 107 220 18 41 46 104 62 140 16 36 35 79 42 95 7 17 20 46 29 65 8 19 19 50 22 69 4 18 16 49 27 68 11 18 21 46 21 61 0 14 6 36 14 48 7 12 15 35 17 52 3 16 10 41 17 54 7 12 16 39 20 58 4 19 12 49 17 65 6 17 16 50 23 75 6 25 15 56 20 70 5 14 10 44 13 67 2 23 7 47 11 53 4 6 9 23 11 38 3 15 7 38 9 52 2 14 9 43 15 65 7 22 14 54 16 70 3 17 9 57 15 90 15 89 18 111 24 210 3 50 8 110 11 135 4 25 7 65 6 90 0 25 2 49 5 53 13 22 19 311 10 452 -4 55 -10 150 -13 210 -2 61 -7 123 -10 139 -3 16 -7 60 -9 98 -3 38 -7 74 -11 79 -3 5 -7 24 -9 42 -8 73 -25 185 -35 237 -6 30 -13 70 -16 89 -2 18 -9 42 -15 52 -5 10 -12 38 -15 61 -3 24 -10 57 -15 74 -12 38 -19 70 -26 109 -3 17 -9 35 -13 40 -5 6 -11 28 -15 50 -4 22 -13 51 -20 65 -7 14 -23 63 -35 110 -13 47 -27 90 -31 96 -5 6 -19 42 -33 80 -13 38 -34 94 -46 124 -13 30 -26 64 -30 75 -4 11 -19 45 -33 75 -14 30 -30 66 -36 80 -6 14 -15 32 -19 40 -26 46 -42 83 -42 98 0 8 -6 23 -14 31 -7 9 -53 88 -102 176 -49 88 -91 162 -94 165 -3 3 -13 21 -24 40 -10 19 -24 40 -30 45 -6 6 -22 30 -35 55 -14 25 -39 65 -56 90 -17 25 -53 77 -80 115 -47 68 -114 155 -126 165 -4 3 -22 26 -42 51 -37 49 -67 85 -104 127 -13 14 -23 28 -23 33 0 11 -389 399 -400 399 -6 0 -10 7 -10 15 0 8 -5 15 -11 15 -7 0 -24 12 -39 28 -45 44 -102 95 -150 131 -25 19 -52 42 -61 50 -9 9 -27 23 -39 31 -13 8 -30 23 -39 33 -8 9 -19 17 -24 17 -5 0 -22 10 -37 23 -55 44 -74 57 -82 57 -4 0 -17 8 -27 18 -32 28 -46 39 -72 52 -13 7 -26 16 -29 20 -3 4 -30 22 -61 41 -30 19 -64 40 -75 46 -10 7 -37 22 -59 34 -22 12 -54 32 -71 45 -17 13 -38 24 -46 24 -8 0 -32 13 -54 30 -21 16 -43 30 -47 30 -15 0 -121 53 -163 82 -23 15 -48 28 -56 28 -7 0 -22 6 -33 13 -11 7 -45 24 -75 37 -30 12 -77 33 -105 45 -27 13 -69 28 -91 34 -23 6 -71 25 -107 41 -37 17 -75 30 -84 30 -10 0 -41 11 -70 24 -28 13 -54 22 -56 19 -3 -2 -27 5 -53 17 -26 12 -57 24 -68 26 -12 2 -46 10 -76 19 -97 29 -204 55 -227 55 -12 0 -24 4 -27 9 -3 5 -23 11 -43 15 -52 8 -78 13 -153 30 -36 8 -90 17 -120 20 -74 7 -131 15 -155 23 -11 3 -49 7 -85 8 -62 3 -146 10 -220 20 -19 2 -88 7 -153 11 -65 3 -129 7 -142 9 -13 1 -26 1 -27 0z m4672 -4068 c0 -8 -27 -29 -61 -48 -33 -19 -95 -55 -137 -80 -42 -26 -108 -64 -147 -84 -57 -31 -193 -116 -265 -165 -8 -6 -46 -30 -85 -55 -38 -24 -90 -58 -115 -75 -172 -120 -216 -151 -227 -160 -7 -5 -15 -10 -18 -10 -7 0 -87 -52 -103 -67 -7 -7 -20 -13 -28 -13 -24 0 -15 29 18 57 17 16 42 39 54 53 13 14 51 45 84 70 34 25 79 59 100 76 35 28 276 194 318 219 52 30 98 60 102 65 8 10 182 104 210 114 14 5 32 14 40 21 8 7 33 18 55 25 22 7 49 19 60 26 10 8 41 17 67 20 27 4 51 11 54 15 8 14 24 11 24 -4z m-565 -1128 c11 -17 5 -19 -162 -59 -166 -41 -320 -67 -330 -56 -11 11 30 46 55 46 13 0 38 6 55 14 104 46 365 84 382 55z m-340 -637 c68 -13 148 -38 220 -69 33 -14 85 -34 115 -45 66 -24 78 -34 63 -49 -17 -17 -181 15 -243 46 -14 7 -63 23 -110 35 -47 13 -102 31 -122 41 -21 11 -46 19 -57 19 -31 0 -51 11 -51 27 0 17 83 14 185 -5z"/><path d="M3000 6935 c0 -5 36 -58 71 -105 27 -36 119 -220 119 -238 0 -5 7 -23 15 -38 8 -16 15 -36 15 -45 0 -19 24 -42 33 -32 32 31 -48 226 -150 364 -47 63 -103 115 -103 94z"/><path d="M6980 5359 c-19 -5 -60 -14 -91 -19 -57 -10 -124 -42 -189 -89 -56 -41 -61 -51 -57 -108 8 -119 195 -273 330 -273 78 0 84 8 53 68 -14 28 -26 54 -26 57 0 11 39 3 149 -31 178 -55 256 -143 181 -205 -22 -19 -14 -31 30 -44 14 -4 31 -13 39 -19 25 -20 142 -35 184 -23 51 14 107 83 200 247 86 151 111 243 82 303 -25 53 -137 105 -254 118 -47 5 -108 14 -134 19 -59 12 -449 11 -497 -1z"/></g></svg> 