<svg version="1.1" width="321.28" height="321.28" viewBox="0 0 321.28 321.28"><g transform="translate(0,75.2)"><path fill="#fff" style="fill:#fff;stroke-width:0.31999999" d="m 75.36,170.38493 c -6.33271,-0.8373 -12.142061,-2.29832 -16.16,-4.06414 -0.792,-0.34807 -2.664,-1.06015 -4.16,-1.58239 -2.938666,-1.02588 -10.242131,-4.48145 -11.483155,-5.43316 -0.419735,-0.32188 -1.023568,-0.58524 -1.341853,-0.58524 -0.318288,0 -0.766867,-0.26356 -0.996848,-0.5857 -0.425606,-0.59616 -2.841424,-2.087 -5.298144,-3.26959 -0.748,-0.36006 -1.36,-0.76903 -1.36,-0.90883 0,-0.13979 -0.756,-0.66289 -1.68,-1.16244 -0.924,-0.49955 -2.413085,-1.45844 -3.309078,-2.13086 -0.895993,-0.67242 -1.744838,-1.22258 -1.886323,-1.22258 -0.141485,0 -0.5604,-0.29241 -0.930922,-0.64979 C 26.383155,148.43282 24.352,146.86674 22.24,145.31002 18.243571,142.36432 16.329932,140.40455 13.278697,136.13269 12.283743,134.73971 11.065719,133.168 10.571977,132.64 8.7266374,130.66662 6.2428221,126.05091 3.7701242,120 0.15625488,111.15655 0.16581436,111.20187 0.19252297,103.04 0.22708453,92.478358 0.89618989,88.148243 3.458455,81.904518 4.0036435,80.576006 4.9445178,77.683805 5.5492867,75.477405 6.7270829,71.180416 6.9837699,70.577616 9.2102627,66.88 11.173953,63.618832 13.087387,61.176339 15.086596,59.378877 17.994099,56.764781 18.068375,56.747286 22.88,57.543302 c 2.655097,0.439248 9.952275,3.612461 13.12,5.7053 6.015098,3.974022 9.202976,6.970224 13.713459,12.888928 2.111351,2.770531 4.997191,7.817164 5.012691,8.765971 0.0034,0.207075 0.806138,2.176499 1.783898,4.376499 0.97776,2.2 2.19119,4.945776 2.696512,6.101725 1.710451,3.912729 3.26737,6.235545 5.43344,8.106315 3.295894,2.84657 4.888234,3.46693 10.755101,4.19009 3.416445,0.42112 4.276259,0.42249 7.202246,0.0115 3.844074,-0.53989 5.184055,-0.93752 6.536368,-1.9396 1.833594,-1.35871 4.422599,-4.30241 5.781981,-6.574112 1.105117,-1.846797 1.396669,-2.670339 1.559027,-4.403786 0.109837,-1.172697 0.371955,-2.852179 0.58249,-3.732179 0.457283,-1.911376 0.414323,-12.505232 -0.07851,-19.36 -0.592086,-8.235331 -0.788339,-22.799101 -0.377315,-28 0.477325,-6.039821 1.24376,-12.73031 1.649606,-14.4 2.604476,-10.71508 3.697426,-13.058499 8.265586,-17.722361 5.07761,-5.1839863 8.28412,-7.4552644 13.20318,-9.3522521 2.84518,-1.0972192 7.73455,-2.19480913 9.80549,-2.201186 4.00441,-0.01233041 16.91243,3.3569155 20.75882,5.4184585 0.67455,0.3615357 1.34784,0.6573376 1.4962,0.6573376 0.3647,0 7.22431,4.198998 9.86554,6.039036 4.93526,3.438192 15.08985,12.023932 17.23419,14.571562 1.30801,1.554013 2.03247,2.144618 2.82096,2.299752 1.48461,0.292092 1.96801,-0.02403 4.20576,-2.75035 4.70794,-5.735852 8.98459,-9.076565 16.01328,-12.508812 12.78522,-6.2432677 13.24452,-6.4043829 22.72,-7.9697288 2.024,-0.3343638 5.192,-0.8869309 7.04,-1.2279261 10.40155,-1.9193074 23.37703,-0.7120416 33.6,3.1262154 6.58251,2.4714305 15.19452,6.5273225 17.76,8.3642095 0.88,0.630081 2.392,1.530093 3.36,2.000026 3.42581,1.663119 4.40072,2.325003 7.38428,5.013302 5.02572,4.528376 8.71166,8.370703 10.13278,10.562714 0.74168,1.144 2.57278,3.664 4.06913,5.6 5.15748,6.672867 7.5603,11.27775 8.76621,16.8 0.17295,0.792 0.81361,2.88 1.4237,4.64 1.9094,5.508339 2.95881,15.552573 2.92547,28 -0.0205,7.667158 -0.33965,10.066458 -2.19163,16.48 -1.54892,5.36399 -1.61866,5.56714 -2.52679,7.36 -0.44575,0.88 -1.68046,3.4 -2.7438,5.6 -1.06335,2.2 -2.56065,5.18573 -3.32733,6.63496 -3.43892,6.50044 -11.69468,15.28833 -20.71202,22.04705 -5.2851,3.96131 -6.61795,4.85331 -12.48,8.35209 -4.90161,2.92554 -10.10038,4.65534 -17.92,5.96257 -9.48787,1.58611 -16.69265,1.81992 -25.62797,0.83167 -7.56894,-0.83714 -12.54514,-2.02117 -17.41203,-4.14301 -0.88,-0.38366 -2.66265,-1.05563 -3.96144,-1.49327 -3.16384,-1.06609 -7.08802,-2.90211 -10.06428,-4.70882 -1.34386,-0.81578 -2.69784,-1.48459 -3.00883,-1.48624 -1.34121,-0.007 -4.36204,-2.286 -8.86325,-6.6863 -12.74743,-12.46167 -14.7471,-14.73918 -17.06837,-19.43991 -0.70186,-1.42131 -1.64307,-3.21569 -2.09159,-3.9875 -2.15393,-3.70653 -5.21335,-15.285 -6.12052,-23.16329 -1.38923,-12.064838 -0.68373,-26.624195 1.87567,-38.707923 0.97254,-4.591712 1.92774,-6.795395 4.86587,-11.225869 1.62876,-2.456026 2.34967,-3.824374 2.2238,-4.220941 -0.20703,-0.652313 -0.56214,-0.878992 -5.14706,-3.285565 -1.76,-0.923808 -3.344,-1.782867 -3.52,-1.90902 -0.50063,-0.358855 -3.01136,-1.309815 -5.12,-1.939252 -1.056,-0.315216 -3.216,-0.97024 -4.8,-1.455609 -3.68122,-1.127994 -7.70978,-1.176122 -12.63645,-0.150963 -4.12924,0.859225 -5.89923,1.794464 -8.34572,4.409776 -1.71554,1.833913 -1.89783,2.162534 -1.89783,3.421276 0,1.629482 1.26558,6.305277 2.38837,8.82409 2.86541,6.428054 3.73398,9.443773 4.79255,16.64 0.88522,6.017731 1.54148,17.912909 1.3594,24.64 -0.19565,7.228282 -1.57856,18.51242 -2.47376,20.18512 -0.14961,0.27954 -0.58304,2.07249 -0.96319,3.98434 -0.87698,4.41046 -2.66215,9.59426 -4.97185,14.4373 -0.99498,2.08628 -2.62992,5.66524 -3.63321,7.95324 -1.52192,3.47071 -2.38554,4.90231 -5.21217,8.64 -4.71389,6.23327 -12.92929,14.25957 -17.67886,17.27196 -4.49896,2.85344 -12.250836,5.3833 -18.727281,6.11174 -4.781325,0.53779 -7.710934,0.52832 -12,-0.0388 z m 177.62035,-15.00947 c 8.69094,-1.15362 15.42395,-3.29574 23.57046,-7.49899 6.67614,-3.4446 11.11588,-6.79182 19.19818,-14.47389 3.34126,-3.17581 8.22276,-9.46139 9.83129,-12.6591 0.78116,-1.55292 2.15514,-4.11948 3.0533,-5.70348 2.6884,-4.74128 3.8772,-7.49873 4.75963,-11.04 1.36638,-5.483459 1.94682,-10.678384 1.93072,-17.28 -0.0126,-5.161747 -0.12537,-6.452826 -0.88058,-10.08 -0.47639,-2.288 -1.06782,-4.736 -1.31429,-5.44 -0.24647,-0.704 -0.54087,-1.856 -0.65421,-2.56 -0.11334,-0.704 -0.91455,-2.461002 -1.78046,-3.904448 -0.86591,-1.443446 -1.57439,-2.698586 -1.57439,-2.789203 0,-0.09061 -0.54,-1.030157 -1.2,-2.087872 -0.66,-1.057712 -1.776,-2.877472 -2.48,-4.043911 -2.05112,-3.398435 -7.79988,-10.987462 -9.91225,-13.085315 -1.52558,-1.515091 -3.21187,-2.628707 -7.85518,-5.187488 -14.46948,-7.973686 -17.9324,-9.164632 -29.6283,-10.189603 -7.67997,-0.673035 -10.61559,-0.375684 -18.96519,1.920995 -10.7599,2.959664 -14.46003,4.5632 -22.11908,9.585811 -2.2,1.442704 -5.008,3.24768 -6.24,4.01106 -5.06652,3.139344 -5.86994,3.738512 -8.3391,6.21902 -3.00702,3.020839 -9.33479,12.289783 -11.3126,16.570743 -0.68397,1.480451 -2.06589,5.276637 -3.07093,8.435971 -1.00505,3.159331 -2.15849,6.75224 -2.5632,7.98424 -1.25582,3.82289 -1.52787,6.875853 -1.34894,15.138237 0.27871,12.869723 2.25637,21.742373 6.39745,28.701763 1.60071,2.69011 6.0982,8.84677 8.44047,11.55426 5.52345,6.38467 13.37914,11.06958 24.27685,14.47801 10.34942,3.23694 21.51467,4.52036 29.78035,3.42319 z M 16.736723,120.56 c 0.210713,-12.46116 0.395521,-14.02061 2.052852,-17.32249 2.31738,-4.616886 7.995413,-7.882848 13.689407,-7.874048 3.334228,0.0052 6.37128,1.073338 12.120407,4.262954 3.678614,2.040894 4.355667,2.019644 5.812953,-0.182464 0.758592,-1.14631 0.871741,-1.641782 0.890292,-3.898579 C 51.322506,93.126003 51.226486,92.744259 49.807018,89.6 48.972739,87.752 47.988554,85.232 47.619936,84 46.901811,81.599862 46.32055,80.291018 45.587283,79.422982 41.229014,74.263718 36.069437,68.879101 34.882765,68.251574 34.099117,67.837171 33.135555,67.195238 32.741514,66.825056 31.33334,65.502144 25.853461,62.996912 23.36,62.536115 20.011291,61.917267 18.796047,61.962218 17.805261,62.741568 16.243779,63.96983 13.570516,67.761155 11.359706,71.882902 10.96944,72.610499 10.32894,74.39616 9.9363722,75.851037 8.8977072,79.700381 8.2053942,81.779309 6.9501066,84.818416 5.1697005,89.128858 4.3864003,94.609654 4.345929,103.04 c -0.02928,6.09899 0.2426179,7.62319 2.1909875,12.28223 0.7447053,1.78077 1.7628889,4.28535 2.2626304,5.56574 0.4997417,1.28038 1.5682831,3.47759 2.3745371,4.88269 1.539252,2.68253 4.419362,6.34072 5.016202,6.37136 0.24419,0.0125 0.409698,-3.49549 0.546437,-11.58202 z" /></g></svg>
